<?xml version="1.0" encoding="UTF-8"?>
<svg id="Layer_2" xmlns="http://www.w3.org/2000/svg" viewBox="0 0 109.42 109.42">
  <defs>
    <style>
      .cls-1 {
        fill: #51a733;
      }

      .cls-2 {
        fill: #2a639b;
      }

      .cls-3 {
        fill: #fff;
      }
    </style>
  </defs>
  <g id="Calque_1">
    <path class="cls-3" d="M102.67,109.42H7.1C3.37,109.43.01,106.41,0,102.67V7.1C-.01,3.37,3.01.01,6.74,0h95.57c3.73-.01,7.09,3.01,7.1,6.75v95.57c.01,3.73-3.01,7.09-6.74,7.1"/>
    <path class="cls-2" d="M102.49,105.2H6.92c-1.49,0-2.71-1.22-2.71-2.71V6.92c0-1.5,1.21-2.71,2.71-2.71h95.57c1.49,0,2.71,1.21,2.71,2.71v95.57c0,1.49-1.21,2.71-2.71,2.71M104.77,6.92c0-1.25-1.02-2.28-2.28-2.28H6.92c-1.25,0-2.28,1.03-2.28,2.28v95.57c0,1.25,1.03,2.28,2.28,2.28h95.57c1.26,0,2.28-1.03,2.28-2.28V6.92Z"/>
    <path class="cls-1" d="M62.65,21.2c-.26-.14-.53-.27-.81-.38-3.31-1.27-7.02.38-8.29,3.69-1.27,3.31.38,7.02,3.69,8.29.28.11.56.19.85.26.46.11.85-.17.96-.64.1-.46-.11-.94-.57-1.05-.21-.05-.41-.11-.62-.19-2.14-.82-3.33-3.05-2.93-5.23l3.44,1.32c.44.17.86-.05,1.03-.5.17-.44.03-.94-.42-1.11l-3.44-1.32c1.16-1.88,3.53-2.74,5.67-1.92.2.08.42.16.61.26.42.23.87.06,1.09-.36.23-.42.15-.92-.27-1.15"/>
    <g>
      <polygon class="cls-2" points="59.37 9.3 58.84 10.96 57.1 10.96 58.5 11.97 57.97 13.62 59.37 12.6 60.77 13.62 60.24 11.97 61.64 10.96 59.91 10.96 59.37 9.3"/>
      <polygon class="cls-2" points="67.23 11.31 66.7 12.96 64.96 12.96 66.36 13.97 65.83 15.63 67.23 14.61 68.63 15.63 68.1 13.97 69.5 12.96 67.77 12.96 67.23 11.31"/>
      <polygon class="cls-2" points="71.87 19.91 71.33 21.56 72.73 20.54 74.14 21.56 73.6 19.91 75 18.89 73.27 18.89 72.73 17.24 72.2 18.89 70.46 18.89 71.87 19.91"/>
      <polygon class="cls-2" points="50.1 15.63 51.5 14.61 52.91 15.63 52.37 13.97 53.78 12.96 52.04 12.96 51.5 11.31 50.97 12.96 49.23 12.96 50.63 13.97 50.1 15.63"/>
      <polygon class="cls-2" points="45.13 19.91 44.59 21.56 46 20.54 47.4 21.56 46.87 19.91 48.27 18.89 46.54 18.89 46 17.24 45.47 18.89 43.73 18.89 45.13 19.91"/>
      <polygon class="cls-2" points="76.94 26.32 75.2 26.32 74.67 24.67 74.13 26.32 72.39 26.32 73.8 27.34 73.26 28.99 74.67 27.97 76.07 28.99 75.53 27.34 76.94 26.32"/>
      <polygon class="cls-2" points="73.05 34.05 72.52 32.4 71.98 34.05 70.25 34.05 71.65 35.07 71.12 36.72 72.52 35.7 73.92 36.72 73.38 35.07 74.79 34.05 73.05 34.05"/>
      <polygon class="cls-2" points="67.37 39.6 66.83 37.95 66.29 39.6 64.56 39.6 65.96 40.62 65.43 42.27 66.83 41.25 68.24 42.27 67.7 40.62 69.1 39.6 67.37 39.6"/>
      <polygon class="cls-2" points="46.75 34.05 46.21 32.4 45.68 34.05 43.95 34.05 45.35 35.07 44.81 36.72 46.22 35.7 47.62 36.72 47.09 35.07 48.49 34.05 46.75 34.05"/>
      <polygon class="cls-2" points="52.44 39.6 51.9 37.95 51.37 39.6 49.63 39.6 51.04 40.62 50.5 42.27 51.9 41.25 53.31 42.27 52.77 40.62 54.17 39.6 52.44 39.6"/>
      <polygon class="cls-2" points="44.07 27.97 45.48 28.99 44.94 27.34 46.34 26.32 44.61 26.32 44.07 24.67 43.53 26.32 41.8 26.32 43.2 27.34 42.67 28.99 44.07 27.97"/>
      <polygon class="cls-2" points="59.91 41.85 59.37 40.2 58.84 41.85 57.1 41.85 58.5 42.87 57.97 44.52 59.37 43.5 60.77 44.52 60.24 42.87 61.64 41.85 59.91 41.85"/>
    </g>
    <path class="cls-1" d="M54.6,48.21c-.21,5.16-2.09,3.93-1.82,12.93-.82-5.53.06-6.28,1.32-11.16-1.43,4.38-2.16,4.05-1.59,11.33-.36.39.09,1.95-1.3,1.23-1.15-1.9-1.1-5.02,1.93-16.15.11-.46,1.59-1.25,1.46,1.82"/>
    <path class="cls-1" d="M41.06,54.17c.87,0,3.66-.37,5.36.82,1.07.75,2,1.41,2.29,1.86.25.39.39.86.57,1.22.18.36-1.24.36-2,.36-1.11,0-4.38-4.25-6.22-4.25"/>
    <path class="cls-1" d="M49.74,53.17c.36.64.29,1.43-.46,1.07-.94-.45-2.39-1.07-3.07-1.5-3.66-2.31-8.72-13.44-13.83-14.76.93-.04,1.61-.07,2.36.07.91.17,14.33,7.25,15.01,15.12"/>
    <path class="cls-1" d="M56.6,54.57c-2.79-3.79,5.39-9.08,14.26-5.58-1,.07-2.82-.04-3.75.43.29.43,2.25.57,4.04.71-.57-.32-.78-.5-1.29-.57,2.86-.32,4.54,1.43,6.4,1.93-.96.07-1.61.07-1.86.07.04.14.11.11.29.32-.96-.39-4.39-.14-5.61.18-1.21.32-1.96.04-2.75.07.14.18.32.21.43.4-1.32-.32-4.29-.07-6.33.93.18-.21.36-.39.57-.5-1.86.43-3.86,1.93-4.39,1.61"/>
    <path class="cls-1" d="M55.24,58.25c0-1.18,2.43-1.61,3.36-1.82.93-.21,2.89-.8,4.54-.82,2.22-.03,5.86.57,7.5,1.93-.79-.28-2.64-.86-3.61-.75.25.18.29.25.32.36,0,0-.68,0-1,.28.25-.07,1.64.07,2.25.11-.68.14-2.86.5-3.32.64.29.1.43.18.61.29-1.57.14-5.22,1.89-6.72,1.93-1.5.04-3.93-.07-3.93-2.14"/>
    <polygon class="cls-1" points="24.1 93.1 22.76 97.45 21.27 97.45 20.39 94.52 19.51 97.45 18.02 97.45 16.68 93.1 18.15 93.1 18.89 96.1 19.82 93.1 21.06 93.1 21.94 96.1 22.67 93.1 24.1 93.1"/>
    <path class="cls-1" d="M22.8,97.51h-1.58v-.05s-.84-2.73-.84-2.73l-.83,2.77h-1.59l-1.38-4.48h1.6l.7,2.82.88-2.82h1.33v.05s.83,2.77.83,2.77l.69-2.82h1.57l-1.39,4.48ZM21.32,97.38h1.39l1.31-4.22h-1.29l-.78,3.18-.94-3.18h-1.14l-.98,3.17-.79-3.17h-1.33l1.3,4.22h1.4l.92-3.09.93,3.09Z"/>
    <polygon class="cls-1" points="31.88 93.1 30.53 97.45 29.05 97.45 28.16 94.52 27.28 97.45 25.79 97.45 24.45 93.1 25.92 93.1 26.66 96.1 27.59 93.1 28.83 93.1 29.71 96.1 30.44 93.1 31.88 93.1"/>
    <path class="cls-1" d="M30.57,97.51h-1.57v-.05s-.84-2.73-.84-2.73l-.83,2.77h-1.59v-.05s-1.37-4.43-1.37-4.43h1.6l.71,2.82.87-2.82h1.33v.05s.83,2.77.83,2.77l.69-2.82h1.57l-.03.08-1.36,4.4ZM29.09,97.38h1.38l1.31-4.22h-1.29l-.78,3.18-.94-3.18h-1.14l-.98,3.17-.79-3.17h-1.32l1.29,4.22h1.4l.92-3.09.94,3.09Z"/>
    <polygon class="cls-1" points="39.65 93.1 38.3 97.45 36.82 97.45 35.93 94.52 35.06 97.45 33.56 97.45 32.22 93.1 33.68 93.1 34.43 96.1 35.36 93.1 36.6 93.1 37.48 96.1 38.21 93.1 39.65 93.1"/>
    <path class="cls-1" d="M38.34,97.51h-1.57v-.05s-.84-2.73-.84-2.73l-.83,2.77h-1.59l-1.38-4.48h1.6l.7,2.82.87-2.82h1.33v.05s.83,2.77.83,2.77l.69-2.82h1.57l-.03.08-1.36,4.4ZM36.86,97.38h1.38l1.31-4.22h-1.3l-.78,3.18-.94-3.18h-1.14l-.98,3.17-.79-3.17h-1.32l1.3,4.22h1.4l.92-3.09.93,3.09Z"/>
    <rect class="cls-1" x="40.53" y="95.93" width="1.45" height="1.52"/>
    <path class="cls-1" d="M42.04,97.51h-1.58v-1.65h1.58v1.65ZM40.59,97.38h1.32v-1.39h-1.32v1.39Z"/>
    <path class="cls-1" d="M47.63,95.53h-3.19c.02.34.15.6.39.78.24.18.59.27,1.05.27.29,0,.58-.05.86-.16.27-.11.49-.22.65-.34h.16v1.12c-.32.12-.61.22-.89.27-.28.06-.59.08-.92.08-.87,0-1.54-.19-2.01-.59-.46-.39-.7-.95-.7-1.68s.22-1.29.66-1.71c.44-.42,1.04-.63,1.81-.63.71,0,1.24.18,1.59.54.36.36.54.88.54,1.55v.49ZM46.24,94.71c0-.29-.08-.51-.22-.66-.14-.15-.35-.22-.64-.22-.27,0-.49.07-.66.21-.17.14-.27.36-.29.67h1.81Z"/>
    <path class="cls-1" d="M45.73,97.63c-.89,0-1.58-.2-2.05-.6-.48-.4-.72-.98-.72-1.73s.23-1.32.68-1.75c.45-.43,1.07-.65,1.86-.65.72,0,1.27.19,1.64.55.37.37.55.9.55,1.59v.55h-3.19c.03.29.15.51.36.66.22.17.57.26,1.01.26.28,0,.56-.05.84-.16.28-.11.49-.22.64-.33h.02s.24-.01.24-.01v1.23l-.04.02c-.32.13-.62.22-.9.28-.28.06-.59.08-.94.08ZM45.5,93.03c-.75,0-1.34.21-1.77.61-.42.4-.64.96-.64,1.66s.23,1.25.68,1.63c.45.38,1.11.57,1.97.57.33,0,.64-.03.91-.08.26-.05.54-.14.84-.25v-1.01h-.07c-.16.12-.37.23-.65.33-.29.11-.58.16-.88.16-.48,0-.84-.09-1.09-.29-.25-.19-.39-.47-.41-.83v-.07s3.19,0,3.19,0v-.42c0-.65-.17-1.16-.52-1.5-.34-.34-.86-.52-1.55-.52ZM46.31,94.78h-1.94v-.07c.02-.33.13-.57.32-.72.19-.15.42-.22.71-.22.31,0,.54.08.68.24.15.16.23.4.24.7v.07ZM44.5,94.65h1.67c-.02-.24-.08-.43-.2-.55-.12-.13-.32-.2-.59-.2s-.46.06-.62.2c-.14.12-.23.3-.26.56Z"/>
    <path class="cls-1" d="M50.88,97.56c-.38,0-.73-.04-1.04-.13-.31-.09-.59-.23-.82-.42-.23-.19-.41-.43-.54-.71-.13-.29-.19-.62-.19-1,0-.41.07-.76.2-1.05.14-.29.33-.54.57-.73.23-.18.5-.32.81-.4.31-.09.63-.13.96-.13.29,0,.57.03.82.1.25.06.48.15.7.25v1.19h-.2c-.06-.04-.12-.1-.2-.16-.08-.06-.17-.12-.28-.18-.11-.06-.22-.1-.35-.14s-.27-.06-.44-.06c-.37,0-.66.12-.86.36-.2.23-.3.56-.3.96s.1.73.31.95c.2.22.5.33.87.33.17,0,.33-.02.47-.06.14-.04.26-.09.35-.14.09-.05.17-.1.23-.16.07-.06.13-.11.19-.17h.2v1.19c-.22.1-.45.18-.69.24-.24.06-.5.09-.79.09"/>
    <path class="cls-1" d="M50.88,97.63c-.39,0-.74-.05-1.06-.14-.32-.09-.61-.24-.84-.43-.24-.19-.42-.44-.55-.74-.13-.29-.2-.64-.2-1.03s.07-.77.21-1.08c.14-.3.34-.55.59-.75.24-.19.52-.33.83-.42.31-.09.64-.13.98-.13.3,0,.58.03.84.1.25.06.49.15.71.26l.04.02v1.29h-.3s-.06-.06-.09-.09c-.03-.03-.07-.06-.11-.09-.07-.06-.16-.12-.27-.17-.1-.05-.21-.1-.34-.14-.12-.04-.26-.05-.42-.05-.35,0-.62.11-.81.33-.19.22-.29.53-.29.92s.1.7.29.91c.19.2.47.31.83.31.17,0,.32-.02.46-.06.13-.04.24-.08.33-.14.1-.05.17-.1.22-.15.07-.06.13-.11.18-.16l.02-.02h.03s.26,0,.26,0v1.3l-.04.02c-.23.1-.46.19-.7.25-.24.06-.52.09-.81.09ZM50.84,93.04c-.32,0-.64.04-.94.13-.3.08-.56.21-.79.39-.24.19-.42.42-.55.71-.13.29-.2.64-.2,1.03s.06.71.19.98c.12.28.3.51.52.69.22.18.49.32.79.41.3.09.65.13,1.02.13.28,0,.54-.03.78-.09.22-.06.43-.13.64-.22v-1.09h-.11c-.06.05-.11.1-.17.15-.06.05-.14.11-.24.17-.1.06-.22.11-.36.15-.15.04-.31.06-.49.06-.39,0-.7-.12-.92-.35-.22-.23-.33-.56-.33-1s.11-.76.32-1c.21-.25.52-.38.9-.38.18,0,.33.02.46.06.14.04.26.09.36.15.11.06.21.13.29.19.04.03.08.06.11.09.02.02.05.04.07.06h.11v-1.08c-.21-.1-.42-.17-.65-.23-.25-.06-.52-.1-.8-.1Z"/>
    <path class="cls-1" d="M57.73,95.27c0,.72-.21,1.28-.62,1.69-.42.41-1,.62-1.76.62s-1.34-.21-1.76-.62c-.42-.41-.63-.98-.63-1.69s.21-1.29.63-1.7c.42-.41,1-.62,1.75-.62s1.35.21,1.76.62c.42.41.62.98.62,1.69M56.01,96.33c.09-.11.16-.25.2-.4.04-.16.07-.37.07-.65,0-.26-.03-.47-.07-.64-.05-.17-.11-.31-.19-.41-.08-.11-.18-.18-.29-.22-.12-.05-.25-.07-.38-.07s-.26.02-.36.05c-.11.04-.21.11-.3.22-.09.1-.15.24-.2.42-.05.17-.08.39-.08.66,0,.24.02.44.07.62.04.18.11.32.19.42.08.1.18.18.3.22.11.04.25.07.39.07.13,0,.25-.02.36-.06.11-.04.21-.11.29-.21"/>
    <path class="cls-1" d="M55.34,97.65c-.77,0-1.37-.21-1.8-.63-.43-.42-.65-1.01-.65-1.74s.22-1.32.65-1.74c.43-.42,1.04-.63,1.8-.63s1.38.21,1.8.64c.42.42.64,1.01.64,1.74s-.22,1.32-.64,1.74c-.43.42-1.03.63-1.8.63ZM55.34,93.03c-.73,0-1.3.2-1.71.6-.41.4-.61.95-.61,1.65s.2,1.25.61,1.65c.4.4.98.6,1.71.6s1.31-.2,1.71-.6c.4-.4.61-.95.61-1.65s-.2-1.25-.6-1.65c-.4-.4-.97-.6-1.71-.6ZM55.36,96.67c-.15,0-.29-.03-.42-.07-.13-.05-.23-.13-.32-.24-.09-.12-.16-.26-.21-.44-.05-.19-.07-.4-.07-.63,0-.27.03-.5.08-.68.05-.19.12-.33.21-.44.11-.12.22-.2.33-.24.1-.04.23-.06.38-.06s.28.02.4.07c.13.05.24.13.32.25.09.11.16.26.21.44.05.19.07.41.07.66,0,.28-.02.5-.07.67-.04.16-.12.3-.21.42h0c-.08.11-.19.18-.32.23-.12.05-.25.07-.39.07ZM55.34,94c-.13,0-.24.02-.33.05-.1.03-.18.09-.28.2-.08.09-.14.22-.19.39-.05.17-.08.39-.08.64,0,.22.02.42.06.6.04.16.1.29.18.39.07.09.17.16.27.2.2.08.47.09.71,0,.1-.04.19-.11.26-.19.09-.11.15-.24.19-.38.04-.16.06-.37.06-.63,0-.24-.02-.45-.07-.63-.04-.16-.1-.29-.18-.39-.07-.09-.16-.17-.27-.2-.11-.04-.23-.06-.36-.06Z"/>
    <rect class="cls-1" x="58.73" y="91.42" width="1.4" height="6.03"/>
    <path class="cls-1" d="M60.19,97.51h-1.53v-6.16h1.53v6.16ZM58.79,97.38h1.27v-5.9h-1.27v5.9Z"/>
    <path class="cls-1" d="M64.07,96.99c-.08.05-.17.12-.28.2-.11.08-.22.14-.31.19-.14.06-.28.11-.43.14s-.31.04-.48.04c-.41,0-.76-.13-1.04-.38-.28-.26-.42-.58-.42-.98,0-.32.07-.58.21-.78.14-.2.34-.36.6-.47.26-.12.58-.2.96-.25.38-.05.78-.08,1.19-.11v-.02c0-.24-.1-.4-.3-.5-.2-.09-.49-.14-.87-.14-.23,0-.47.04-.74.12-.26.08-.44.14-.56.19h-.13v-1.05c.15-.04.39-.08.72-.14.33-.05.67-.08,1-.08.79,0,1.37.12,1.72.37.35.24.53.62.53,1.15v2.96h-1.38v-.46ZM64.07,96.31v-.9c-.19.01-.39.03-.61.06-.22.03-.39.06-.5.09-.14.04-.25.11-.32.19-.07.08-.11.2-.11.33,0,.09,0,.16.02.22.02.06.05.11.12.16.06.05.13.09.21.12.08.02.21.03.39.03.14,0,.28-.03.42-.08.14-.06.27-.13.38-.22"/>
    <path class="cls-1" d="M62.57,97.63c-.43,0-.79-.13-1.08-.4-.29-.27-.44-.61-.44-1.03,0-.32.08-.6.23-.82.15-.21.36-.38.63-.5.26-.12.59-.2.98-.25.37-.05.75-.08,1.14-.1,0-.19-.09-.33-.26-.4-.19-.09-.47-.13-.84-.13-.22,0-.46.04-.72.12-.3.09-.47.15-.56.19h-.02s-.19,0-.19,0v-1.17h.05c.12-.04.34-.09.72-.15.34-.05.68-.08,1.01-.08.81,0,1.39.12,1.76.38.37.25.56.66.56,1.2v3.02h-1.51v-.4c-.05.04-.11.08-.18.13-.11.08-.22.15-.33.19-.14.06-.29.11-.44.14-.15.03-.31.05-.5.05ZM62.92,93.87c.39,0,.69.05.9.14.22.1.33.3.33.56v.08h-.06c-.41.03-.8.06-1.19.11-.37.05-.69.13-.94.25-.25.11-.44.26-.58.45-.13.19-.2.45-.2.74,0,.38.13.69.4.93.27.24.6.37.99.37.18,0,.33-.01.47-.04.14-.03.28-.08.41-.14.1-.04.2-.11.3-.18.11-.08.2-.15.28-.2l.1-.07v.52h1.25v-2.9c0-.5-.17-.86-.5-1.09-.34-.24-.91-.36-1.68-.36-.32,0-.65.03-.99.08-.33.05-.54.09-.66.12v.94h.05c.13-.05.32-.11.55-.19.27-.08.52-.12.76-.12ZM63.27,96.68c-.19,0-.32-.01-.4-.04-.09-.03-.17-.07-.24-.13-.07-.06-.12-.12-.14-.19-.02-.07-.03-.14-.03-.24,0-.15.04-.28.13-.37.08-.09.19-.16.35-.21.11-.04.28-.07.51-.09.23-.03.43-.05.62-.06h.07s0,1,0,1l-.02.02c-.12.1-.25.18-.4.23-.15.06-.3.09-.45.09ZM64.01,95.48c-.16.01-.34.03-.54.06-.23.03-.38.06-.49.09-.13.04-.23.1-.29.17-.06.07-.1.17-.1.29,0,.08,0,.15.02.21.01.04.04.09.1.13.05.04.12.08.19.1.07.02.2.03.37.03.13,0,.27-.03.4-.08.12-.05.24-.11.34-.19v-.8Z"/>
    <path class="cls-1" d="M71.28,95.21c0,.68-.19,1.24-.57,1.67-.38.43-.85.65-1.42.65-.24,0-.45-.03-.64-.08-.18-.05-.36-.13-.52-.23l-.06.22h-1.34v-6.03h1.4v2.13c.21-.17.44-.31.66-.41.22-.11.48-.16.77-.16.55,0,.97.2,1.27.6.29.4.44.94.44,1.64M69.84,95.24c0-.39-.07-.68-.2-.89-.13-.21-.37-.31-.7-.31-.13,0-.27.02-.41.06-.14.04-.27.09-.4.17v2.18c.1.04.2.06.29.07.09.01.2.02.33.02.37,0,.64-.11.82-.33.18-.22.27-.54.27-.97"/>
    <path class="cls-1" d="M69.29,97.6c-.24,0-.46-.03-.65-.08-.17-.05-.32-.11-.47-.19l-.05.19h-1.45v-6.16h1.53v2.06c.18-.13.37-.25.57-.34.23-.11.5-.17.8-.17.57,0,1.01.21,1.32.62.3.41.46.97.46,1.68s-.2,1.27-.58,1.71c-.39.45-.88.67-1.46.67ZM68.09,97.13l.07.04c.16.1.32.17.51.22.18.05.39.07.62.07.55,0,1-.21,1.37-.63.37-.42.55-.97.55-1.63s-.14-1.22-.43-1.6c-.29-.38-.7-.57-1.22-.57-.28,0-.53.05-.74.15-.23.11-.44.25-.65.41l-.1.08v-2.2h-1.27v5.9h1.22l.07-.25ZM68.75,96.61c-.11,0-.23,0-.33-.02-.09-.01-.19-.04-.3-.08l-.04-.02v-2.26l.03-.02c.13-.08.26-.13.41-.18.14-.04.28-.06.42-.06.37,0,.61.11.76.34.14.22.21.53.21.93,0,.45-.09.78-.28,1.02-.19.23-.49.35-.87.35ZM68.2,96.4c.08.03.16.05.23.06.1.01.21.02.32.02.35,0,.61-.1.77-.3.17-.21.25-.52.25-.93,0-.37-.06-.66-.19-.86-.12-.19-.33-.28-.65-.28-.13,0-.26.02-.39.06-.13.04-.24.08-.35.15v2.1Z"/>
    <path class="cls-1" d="M76.57,95.53h-3.19c.02.34.15.6.39.78.24.18.59.27,1.06.27.3,0,.58-.05.86-.16.28-.11.5-.22.66-.34h.16v1.12c-.32.12-.61.22-.89.27-.28.06-.59.08-.93.08-.87,0-1.54-.19-2.01-.59-.47-.39-.7-.95-.7-1.68s.22-1.29.66-1.71c.44-.42,1.04-.63,1.81-.63.71,0,1.24.18,1.59.54.36.36.54.88.54,1.55v.49ZM75.18,94.71c0-.29-.08-.51-.22-.66-.14-.15-.35-.22-.64-.22-.27,0-.49.07-.67.21-.17.14-.27.36-.29.67h1.81Z"/>
    <path class="cls-1" d="M74.67,97.63c-.89,0-1.58-.2-2.05-.6-.48-.4-.72-.98-.72-1.73s.23-1.32.68-1.75c.45-.43,1.08-.65,1.86-.65.72,0,1.27.19,1.64.55.37.37.56.9.56,1.59v.55h-3.19c.03.29.15.51.36.66.23.17.57.26,1.02.26.28,0,.57-.05.83-.16.28-.11.49-.22.64-.33h.02s.24-.01.24-.01v1.23l-.04.02c-.32.13-.62.22-.9.28-.28.06-.6.08-.94.08ZM74.44,93.03c-.76,0-1.34.2-1.77.61-.43.41-.64.95-.64,1.66s.23,1.25.67,1.63c.45.38,1.11.57,1.96.57.34,0,.64-.03.92-.08.26-.05.54-.14.84-.25v-1.01h-.07c-.16.12-.38.23-.65.33-.28.11-.58.16-.88.16-.47,0-.84-.1-1.09-.29-.25-.19-.39-.47-.41-.83v-.07s3.19,0,3.19,0v-.42c0-.66-.17-1.16-.52-1.5-.34-.34-.86-.52-1.55-.52ZM75.25,94.78h-1.94v-.07c.02-.32.13-.57.32-.72.18-.15.42-.22.71-.22.31,0,.54.08.68.24.15.16.23.39.24.7v.07ZM73.44,94.65h1.67c-.02-.24-.08-.43-.2-.55-.12-.13-.32-.2-.59-.2s-.46.06-.62.2c-.14.12-.23.3-.26.56Z"/>
    <rect class="cls-1" x="77.55" y="91.42" width="1.4" height="6.03"/>
    <path class="cls-1" d="M79.01,97.51h-1.53v-6.16h1.53v6.16ZM77.62,97.38h1.27v-5.9h-1.27v5.9Z"/>
    <rect class="cls-1" x="80.31" y="95.93" width="1.45" height="1.52"/>
    <path class="cls-1" d="M81.83,97.51h-1.58v-1.65h1.58v1.65ZM80.38,97.38h1.32v-1.39h-1.32v1.39Z"/>
    <path class="cls-1" d="M87.41,95.53h-3.19c.02.34.15.6.39.78.24.18.59.27,1.05.27.29,0,.58-.05.86-.16.28-.11.5-.22.65-.34h.15v1.12c-.31.12-.61.22-.89.27-.28.06-.59.08-.92.08-.88,0-1.54-.19-2.01-.59-.46-.39-.7-.95-.7-1.68s.22-1.29.66-1.71c.44-.42,1.04-.63,1.81-.63.71,0,1.24.18,1.6.54.36.36.54.88.54,1.55v.49ZM86.03,94.71c0-.29-.08-.51-.22-.66-.13-.15-.35-.22-.64-.22-.27,0-.49.07-.66.21-.17.14-.27.36-.29.67h1.81Z"/>
    <path class="cls-1" d="M85.52,97.63c-.89,0-1.58-.2-2.05-.6-.48-.4-.72-.98-.72-1.73s.23-1.32.68-1.75c.45-.43,1.07-.65,1.85-.65.72,0,1.27.19,1.64.55.37.37.55.9.55,1.59v.55h-3.19c.03.29.16.51.36.66.22.17.56.26,1.01.26.29,0,.56-.05.83-.16.28-.11.49-.22.64-.33h.02s.24-.01.24-.01v1.23l-.04.02c-.32.13-.62.22-.9.28-.28.06-.59.08-.94.08ZM85.28,93.03c-.75,0-1.34.21-1.77.61-.43.41-.64.95-.64,1.66s.23,1.25.67,1.63c.45.38,1.11.57,1.97.57.34,0,.64-.03.91-.08.26-.05.54-.14.84-.25v-1.01h-.07c-.16.12-.37.23-.65.33-.29.11-.58.16-.88.16-.49,0-.84-.09-1.09-.29-.25-.19-.39-.46-.42-.83v-.07s3.19,0,3.19,0v-.42c0-.65-.17-1.16-.52-1.5-.34-.34-.86-.52-1.55-.52ZM86.09,94.78h-1.94v-.07c.03-.33.13-.57.32-.72.18-.15.42-.22.7-.22.31,0,.54.08.68.24.15.16.23.39.24.7v.07ZM84.29,94.65h1.67c-.01-.24-.08-.43-.2-.55-.12-.13-.32-.2-.59-.2-.25,0-.46.07-.62.2-.15.12-.23.3-.26.56Z"/>
    <path class="cls-1" d="M92.73,97.45h-1.4v-.48c-.26.19-.49.34-.71.45-.21.1-.47.15-.76.15-.48,0-.85-.14-1.11-.42-.26-.28-.39-.68-.39-1.22v-2.83h1.4v2.16c0,.22,0,.4.02.55.01.14.05.26.1.36.05.09.12.17.22.21.1.04.24.07.42.07.12,0,.25-.02.39-.07.14-.04.28-.11.42-.19v-3.08h1.4v4.35Z"/>
    <path class="cls-1" d="M89.86,97.63c-.5,0-.88-.15-1.15-.44-.27-.29-.41-.71-.41-1.27v-2.9h1.53v2.22c0,.21,0,.4.02.54.01.12.04.24.09.34.04.08.11.14.19.18.09.04.22.06.39.06.11,0,.24-.02.38-.06.12-.04.25-.09.37-.17v-3.11h1.53v4.48h-1.53v-.42c-.23.16-.43.29-.62.38-.22.1-.48.16-.79.16ZM88.43,93.16v2.77c0,.52.13.92.38,1.18.25.27.59.39,1.06.39.29,0,.54-.05.74-.15.21-.1.44-.24.7-.44l.1-.08v.54h1.27v-4.22h-1.27v3.06l-.03.02c-.14.09-.29.16-.43.2-.15.04-.29.07-.41.07-.19,0-.34-.02-.44-.07-.11-.05-.2-.13-.25-.24-.06-.12-.09-.25-.11-.38-.01-.15-.02-.34-.02-.56v-2.09h-1.27Z"/>
    <polygon class="cls-1" points="27.3 62.71 21.54 62.71 21.54 53.96 27.3 53.96 27.3 55 22.7 55 22.7 57.39 27.3 57.39 27.3 58.43 22.7 58.43 22.7 61.68 27.3 61.68 27.3 62.71"/>
    <path class="cls-1" d="M35.73,59.2c0,.63-.07,1.19-.21,1.66-.14.47-.37.86-.69,1.18-.3.3-.65.52-1.06.65-.4.14-.87.2-1.41.2s-1.03-.07-1.43-.22c-.41-.15-.75-.36-1.03-.64-.32-.32-.54-.71-.69-1.16-.14-.45-.21-1.01-.21-1.67v-5.24h1.16v5.3c0,.47.03.85.1,1.12.06.28.17.52.33.75.17.25.41.44.7.57.3.13.65.2,1.07.2s.78-.06,1.07-.19c.29-.13.53-.32.7-.58.15-.22.26-.48.33-.77.06-.29.09-.65.09-1.07v-5.32h1.16v5.24Z"/>
    <polygon class="cls-2" points="21.43 88.94 21.43 63.79 28.47 63.79 28.47 65.79 23.39 65.79 23.39 76.37 26.48 76.37 26.48 78.36 23.39 78.36 23.39 86.95 28.47 86.95 28.47 88.94 21.43 88.94"/>
    <path class="cls-2" d="M35.9,77.49v-2.86c0-.43-.15-.79-.45-1.09-.3-.3-.67-.45-1.11-.45s-.8.15-1.1.45c-.3.3-.45.67-.45,1.09v11c0,.43.15.8.45,1.1.3.3.67.45,1.1.45s.8-.15,1.11-.45c.3-.3.45-.66.45-1.1v-2.63h1.96v2.63c0,.5-.09.96-.27,1.39-.18.43-.43.8-.75,1.13-.32.32-.7.57-1.12.75-.43.18-.89.27-1.38.27s-.95-.09-1.38-.27c-.43-.18-.8-.43-1.12-.75-.32-.32-.57-.7-.75-1.13-.18-.43-.27-.89-.27-1.39v-11c0-.49.09-.95.27-1.38.18-.43.43-.81.75-1.12.32-.32.69-.58,1.12-.76.43-.18.89-.27,1.38-.27s.95.09,1.38.27c.43.18.8.43,1.12.76.32.32.57.7.75,1.12.18.43.27.89.27,1.38v2.86h-1.96Z"/>
    <path class="cls-2" d="M47.76,85.63c0,.49-.09.95-.27,1.38-.18.43-.43.8-.75,1.13-.32.32-.69.57-1.12.76-.43.18-.88.27-1.38.27s-.95-.09-1.38-.27c-.43-.18-.8-.44-1.12-.76-.32-.32-.57-.7-.75-1.13-.18-.43-.27-.89-.27-1.38v-11c0-.49.09-.95.27-1.38.18-.43.43-.8.75-1.12.32-.32.69-.57,1.12-.76.43-.18.89-.27,1.38-.27s.95.09,1.38.27c.43.18.8.43,1.12.76.32.32.57.69.75,1.12.18.43.27.89.27,1.38v11ZM45.8,74.63c0-.43-.15-.79-.46-1.09-.3-.3-.67-.45-1.1-.45s-.8.15-1.1.45c-.3.3-.46.67-.46,1.09v11c0,.43.15.79.46,1.09.3.3.67.45,1.1.45s.8-.15,1.1-.45c.3-.3.46-.67.46-1.09v-11Z"/>
    <rect class="cls-2" x="50.63" y="63.82" width="1.96" height="25.12"/>
    <path class="cls-2" d="M60.53,88.81c-.23.11-.48.19-.72.26-.25.06-.52.1-.82.1-.49,0-.96-.09-1.38-.27-.43-.18-.81-.43-1.13-.75-.32-.32-.57-.7-.76-1.13-.18-.43-.27-.89-.27-1.38v-5.27c0-.49.09-.96.27-1.38.18-.43.44-.8.76-1.13.32-.32.7-.57,1.13-.76.43-.18.89-.27,1.38-.27.3,0,.58.04.85.11.27.08.5.16.69.24v-2.54c0-.43-.15-.79-.46-1.09-.3-.3-.67-.45-1.1-.45s-.8.15-1.11.45c-.3.3-.45.66-.45,1.09v.87h-1.96v-.87c0-.49.09-.95.27-1.38.18-.43.43-.8.75-1.12.32-.32.7-.57,1.12-.76.43-.18.88-.27,1.37-.27s.95.09,1.38.27c.43.18.8.43,1.12.76.32.32.57.7.75,1.12.18.43.27.89.27,1.38v14.31h-1.96v-.13ZM57.41,85.63c0,.43.15.79.45,1.09.3.3.67.45,1.11.45s.8-.15,1.1-.45c.3-.3.46-.67.46-1.09v-5.27c0-.43-.15-.79-.46-1.09-.3-.3-.67-.45-1.1-.45s-.8.15-1.11.45c-.3.3-.45.66-.45,1.09v5.27Z"/>
    <path class="cls-2" d="M68.01,71.21c.27-.08.55-.12.85-.12.49,0,.96.09,1.38.27.43.18.81.43,1.13.76.32.32.57.7.75,1.12.18.43.27.89.27,1.38v11c0,.49-.09.95-.27,1.38-.18.43-.43.8-.75,1.13-.32.32-.7.57-1.13.76-.43.18-.89.27-1.38.27-.3,0-.57-.03-.82-.1-.25-.06-.49-.15-.72-.26v.13h-1.96v-25.12h1.96v7.62c.19-.09.42-.17.69-.24M69.98,73.54c-.3-.3-.67-.45-1.1-.45s-.8.15-1.11.45c-.3.3-.45.67-.45,1.09v11c0,.43.15.79.45,1.09.3.3.67.45,1.11.45s.8-.15,1.1-.45c.3-.3.46-.67.46-1.09v-11c0-.43-.15-.79-.46-1.09"/>
    <path class="cls-2" d="M75.26,74.63c0-.49.09-.95.27-1.38.18-.43.43-.81.75-1.12.32-.32.69-.57,1.12-.76.43-.18.89-.27,1.38-.27s.95.09,1.38.27c.43.18.8.43,1.12.76.32.32.57.7.75,1.12.18.43.27.89.27,1.38v6.82h-5.08v4.18c0,.43.15.8.45,1.1.3.3.67.45,1.1.45s.8-.15,1.11-.45c.3-.3.45-.66.45-1.1v-1.32h1.96v1.32c0,.5-.09.96-.27,1.38-.18.43-.43.8-.75,1.13-.32.32-.69.57-1.12.76-.43.18-.88.27-1.38.27s-.95-.09-1.38-.27c-.43-.18-.8-.43-1.12-.76-.32-.32-.57-.7-.75-1.13-.18-.43-.27-.89-.27-1.38v-11ZM77.23,79.46h3.12v-4.82c0-.43-.15-.79-.45-1.09-.3-.3-.67-.45-1.11-.45s-.8.15-1.1.45c-.3.3-.45.67-.45,1.09v4.82Z"/>
    <rect class="cls-2" x="85.17" y="63.82" width="1.96" height="25.12"/>
  </g>
</svg>