<?xml version="1.0" encoding="UTF-8"?>
<svg id="Layer_2" xmlns="http://www.w3.org/2000/svg" xmlns:xlink="http://www.w3.org/1999/xlink" viewBox="0 0 224.53 268.32">
  <defs>
    <style>
      .cls-1 {
        fill: none;
      }

      .cls-2 {
        fill: #231f20;
      }

      .cls-3 {
        fill: #929497;
      }

      .cls-4 {
        fill: #c2d840;
      }

      .cls-5 {
        fill: #00b8e3;
      }

      .cls-6 {
        clip-path: url(#clippath);
      }
    </style>
    <clipPath id="clippath">
      <rect class="cls-1" width="224.53" height="268.32"/>
    </clipPath>
  </defs>
  <g id="Layer_1-2" data-name="Layer_1">
    <g class="cls-6">
      <path class="cls-2" d="M200.9,29.42c-6.02,0-10.91-4.89-10.91-10.91s4.89-10.9,10.91-10.9,10.89,4.89,10.89,10.9-4.88,10.91-10.89,10.91M200.9,8.94c-5.28,0-9.58,4.29-9.58,9.57s4.3,9.58,9.58,9.58,9.56-4.3,9.56-9.58-4.29-9.57-9.56-9.57"/>
      <path class="cls-2" d="M196.02,11.92h6.37c3.35,0,3.97,2.47,3.97,3.56,0,1.39-.71,2.58-1.95,3,1.03.46,1.6.84,1.6,3.2,0,1.84,0,2.29.57,2.51v.33h-2.91c-.18-.6-.29-1.25-.29-2.54,0-1.72-.1-2.39-2.05-2.39h-2.72v4.93h-2.58v-12.6ZM201.69,17.46c1.37,0,2.03-.48,2.03-1.72,0-.67-.29-1.65-1.84-1.65h-3.28v3.37h3.09Z"/>
      <path class="cls-2" d="M29.64,210.83l-10.69,31.72h5.73l1.88-6.34h12.68l1.89,6.34h5.72l-10.83-31.72h-6.39ZM37.86,231.63h-9.9l4.98-16.47,4.78,16.03.14.44ZM50.67,242.56h5.28v-31.72h-5.28v31.72ZM79.49,229.46l.2-.06c1.76-.56,6.13-2.58,6.13-8.58,0-3.67-1.51-6.12-3.45-7.72-2.75-2.22-5.51-2.22-9.84-2.27h-9.98v31.72h5.32v-12.03h5.98l6.42,12.03h6.14l-7.14-13.04.21-.05ZM77.83,225.34c-1.35.7-2.82.76-3.49.78-1.14.04-1.94.09-4.01.09h-2.46v-10.85h3.15c3.57,0,5.19.04,6.59.73,2.65,1.35,2.76,3.87,2.76,4.63h-.05l.05.04s0,.01,0,.01c0,2.47-1.19,3.86-2.54,4.55M5.32,215.56h15.43v-4.73H0v31.72h5.32v-13.73h13.54v-4.5H5.32v-8.77ZM191.81,213.29c-3.32-2.37-6.6-2.41-9.4-2.46h-11.27v31.72h10.03c3.81-.04,7.13-.1,10.26-1.93,4.61-2.66,6.47-8.16,6.48-13.65,0-3.6-.83-9.98-6.1-13.68M192.17,227.08c0,6.78-2.59,9.02-5.05,9.95-1.44.53-3.1.76-7.7.76h-2.91v-22.14h3.56c4.06.05,5.13.09,6.94.91,4.7,2.27,5.15,7.41,5.15,10.47v.05ZM224.52,215.56v-4.73h-22.35v31.72h22.28v-4.77h-17v-9.38h15.6v-4.54h-15.6v-8.31h17.08ZM87.65,215.65h8.76v26.9h5.37v-26.9h8.96v-4.81h-23.09v4.81ZM151.1,210.83l-10.69,31.72h5.73l1.88-6.35h12.69s1.88,6.34,1.88,6.34h5.73l-10.83-31.72h-6.39ZM149.42,231.63l4.96-16.47,4.92,16.47h-9.88ZM131.37,229.45l.2-.05c1.77-.54,6.13-2.58,6.14-8.58,0-3.66-1.51-6.11-3.46-7.72-2.73-2.22-5.5-2.22-9.83-2.27h-9.99v31.72h5.32v-12.03h5.97l6.43,12.03h6.13l-7.13-13.04.21-.07ZM129.71,225.34c-1.34.7-2.81.76-3.48.78-1.15.05-1.94.09-4.02.09h-2.47v-10.5s0-.35,0-.35h3.15c3.57,0,5.18.04,6.58.73,2.64,1.34,2.76,3.84,2.76,4.62h-.01v.05s.01.01.01.01c0,2.47-1.18,3.86-2.53,4.55M209.72,97.46C209.72,43.64,166.08,0,112.26,0S14.8,43.64,14.8,97.46s43.64,97.45,97.46,97.45,97.46-43.62,97.46-97.45"/>
      <path class="cls-5" d="M179.83,155.1h0c13.07-15.42,20.97-35.9,20.97-57.72,0-10.97-1.99-21.46-5.62-31.14-11.99-32.99-44.85-57.56-81.97-57.56-.66,0-2.41.05-2.41.05-6.9.24-13.83,1.47-19.49,3.2-2.65.81-12.07,4.05-18.97,11.09-7.26,7.51-11.73,17.71-11.73,28.98,0,18.37,12.66,33.54,29.72,40.48,7.33,2.89,15.34,4.7,21.22,6.14,10.22,2.49,31.74,6.08,49.65,17.91l.69.45c11.2,7.64,17.95,18.88,17.95,37.09M125.41,90.61c-12.88,0-23.31-10.43-23.31-23.29s10.43-23.31,23.31-23.31,23.3,10.43,23.3,23.31-10.44,23.29-23.3,23.29"/>
      <path class="cls-4" d="M23.44,97.69c0-23.53,9.32-45.15,24.36-61.01-1.92,4.94-4.64,13.92-4.64,24.32,0,11.84,3.5,25.79,15.62,38.56l2.22,2.35c17.28,18.2,32.81,34.54,32.81,56.31,0,7.44-1.83,15.52-6.02,24.52-37.09-10.54-64.36-44.63-64.36-85.03"/>
      <path class="cls-3" d="M97.81,261.54l-9.41-15.05h-3.6v21.29h3.9l-.24-14.93,9.31,14.93h3.47v-21.29h-3.91l.47,15.05ZM81.08,253.28c0-2.48-1.01-4.16-2.35-5.25-1.87-1.51-3.77-1.51-6.6-1.54h-6.79v21.29h3.96v-7.9h3.55l4.22,7.9h4.57l-4.74-8.65c1.21-.36,4.19-1.78,4.19-5.85M73.31,256.53c-.77.03-1.28.06-2.63.06h-1.38v-6.67h1.84c2.35,0,3.38.03,4.22.46,1.65.84,1.68,2.41,1.68,2.86,0,3.1-2.86,3.25-3.73,3.28M50.07,258.49h10.24v-3.44h-10.24v-5h11.21v-3.56h-15.13v21.29h15.89v-3.59h-11.97v-5.7ZM21.7,261.54l-9.42-15.05h-3.58v21.29h3.89l-.24-14.93,9.32,14.93h3.47v-21.29h-3.92l.49,15.05ZM0,267.78h3.92v-21.29H0v21.29ZM27.88,250.11h5.76v17.67h3.97v-17.67h5.88v-3.62h-15.62v3.62ZM197.62,246.49l-7.18,21.29h4.25l1.24-4.16h7.99l1.24,4.16h4.24l-7.25-21.29h-4.53ZM196.98,260.16l2.96-9.81,2.91,9.81h-5.87ZM110.92,246.49l-7.17,21.29h4.26l1.22-4.16h7.99l1.25,4.16h4.23l-7.26-21.29h-4.53ZM110.31,260.16l2.93-9.81,2.94,9.81h-5.87ZM216,264.16v-17.71h-4.02v21.33h12.45v-3.62h-8.44ZM184.5,261.54l-9.42-15.05h-3.58v21.29h3.89l-.25-14.93,9.33,14.93h3.47v-21.29h-3.92l.49,15.05ZM121.42,250.11h5.75v17.67h3.99v-17.67h5.88v-3.62h-15.62v3.62ZM139.72,267.78h3.92v-21.29h-3.92v21.29ZM157.58,245.95c-5.81,0-10.22,4.7-10.22,11.22,0,2.68.73,5.45,2.85,7.9,2.16,2.51,4.63,3.26,7.31,3.26,6.57,0,10.24-5.09,10.26-11.18.04-7.27-4.91-11.19-10.19-11.19M157.65,264.64c-3.53,0-6.18-2.86-6.18-7.66,0-4.44,2.44-7.39,6.09-7.39,4.19,0,6.34,3.83,6.25,7.99-.1,5.13-3.5,7.06-6.15,7.06"/>
    </g>
  </g>
</svg>