<?xml version="1.0" encoding="UTF-8"?>
<svg id="Layer_2" xmlns="http://www.w3.org/2000/svg" viewBox="0 0 1783.89 861.79">
  <defs>
    <style>
      .cls-1 {
        fill: none;
      }

      .cls-2 {
        fill: #fefefd;
      }

      .cls-3 {
        fill: #c8a364;
      }
    </style>
  </defs>
  <g id="GR_vektor">
    <g id="GR_vektor-2" data-name="GR_vektor">
      <path class="cls-3" d="M347.98,0c27.26,16.71,54.57,33.32,81.76,50.14,83.65,51.74,167.05,103.89,251.06,155.04,14.07,8.56,8.27,20.13,8.28,30.29.08,52.12-.41,104.25-1.74,156.35-2.07,81.27-4.17,162.55-8.35,243.72-.64,12.35-18.56,16.89-29.06,23.93-99.09,66.44-198.54,132.34-297.85,198.46-1.31.87-2.09,2.56-3.11,3.87h-5c-40.62-25.57-81.24-51.15-121.86-76.72-.1.17-.21.34-.31.52C147.87,739,73.93,692.42,0,645.84c0-20.66,0-41.32,0-61.98.69-55.75,1.71-111.5,2-167.26.35-68.04.08-136.08.08-202.34,7.38-3.67,10.63-4.98,13.56-6.79,71.88-44.4,143.95-88.5,215.5-133.43,38.09-23.92,75.26-49.31,112.85-74.04,1.33,0,2.67,0,4,0ZM345.58,13.37c-9.1,5.45-17.55,10.26-25.75,15.48-87.93,55.99-176.2,111.48-263.34,168.68-13.81,9.06-37.15,11.09-36.66,36.22,1.76,90.22,3.41,180.44,4.64,270.67.57,42.09.1,84.19.1,124.77,108.45,69.16,214.83,137,321.1,204.78,110.4-65.92,220.56-131.71,330.86-197.57.09-1.8.32-3.79.27-5.78-2.91-133.3-5.86-266.61-8.67-399.91-.12-5.49-2.2-8.57-6.8-11.49-58.14-36.96-116.36-73.79-174.08-111.39-47.47-30.92-94.31-62.81-141.66-94.44Z"/>
      <path class="cls-3" d="M1783.89,448.89c-11.18,17.13-34.53,20.47-46.49,6.31,2.63-7.19,5.61-12.03,14.65-6.21,5.17,3.33,12.69,5.07,16.21-1.88,3.37-6.67-3-9.49-8.28-10.67-15.78-3.52-25.79-12.49-18.4-28.48,7.92-17.13,23.39-13.92,37.9-7.82,1.46.61,2.94,1.17,4.4,1.75v2c-1.81,2.35-3.62,4.69-6.43,8.34-2.4-.76-5.65-1.86-8.95-2.81-5.02-1.45-10.88-3.32-13.31,3.07-2.62,6.9,3.83,8.2,8.37,9.68,8.15,2.66,16.02,5.46,20.32,13.72v13Z"/>
      <path class="cls-3" d="M1370.01,396.85h16.41v66.58h-14.24v-40.03c-10.35,10.35-8.59,31.94-23.16,32.08-15.16.15-12.53-21.96-23.09-31.01v38.86h-14.43v-66.58h15.9c6.94,13.5,14,27.25,21.49,41.81,7.3-14.42,14.28-28.18,21.14-41.72Z"/>
      <path class="cls-3" d="M1117.18,423.38c-10.39,10.49-9.23,31.95-23.7,32.06-14.87.11-12.52-22.07-23.18-31.5v39.41h-13.93v-66.67h15.77c6.87,13.51,13.9,27.33,21.41,42.09,7.38-14.46,14.36-28.15,21.43-42.03h16.05v66.76h-13.86v-40.11Z"/>
      <path class="cls-3" d="M1344.14,536.83v-40.6h13.96v67.85c-24.12-3.83-27.39-29.08-44.17-40v38.3h-14.01v-66.18h11.86c10.02,12.57,20.6,25.86,32.36,40.63Z"/>
      <path class="cls-3" d="M1193.79,396.02c19.18,2.23,40.11-5.56,54.16,13.56,9.25,12.58,9.62,26.8,1.21,39.37-13.62,20.36-35.46,13.64-55.37,14.78v-67.72ZM1210.03,450.91c9.28.25,18.72,2.1,24.46-7.23,5.51-8.95,5.37-18.69.01-27.49-5.62-9.23-15.26-7.49-24.47-7.2v41.93Z"/>
      <path class="cls-3" d="M1201.15,496.18h12.59c10.43,13.3,20.5,26.14,31.93,40.72v-40.76h13.79v67.54c-24.02-3.52-27.48-28.32-43.6-39.57v38.11h-14.72v-66.05Z"/>
      <path class="cls-3" d="M938.54,463.85v-67.42c18.16,1.12,37.71-5.1,52.29,10.6,10.83,11.66,11.92,26.32,4.32,39.83-12.92,22.96-35.93,15.43-56.61,16.98ZM954.45,450.93c9.07.07,18.59,2.4,24.56-6.78,5.82-8.96,6-18.87.38-27.81-5.79-9.2-15.41-7.83-24.94-7.09v41.67Z"/>
      <path class="cls-3" d="M1045.24,563.78c-19.52-2.56-33.17-12.24-33.16-34.16,0-23.05,13.61-34.5,35.64-34.42,21.4.08,33.49,12.58,33.62,33.83.14,22.64-13.47,33.25-36.09,34.75ZM1065.27,529.28c-.4-12.77-5.49-21.5-19.36-21.13-13.25.35-17.94,9.45-17.85,21.16.1,11.99,5.04,20.6,18.72,20.67,13.99.07,17.78-8.99,18.49-20.7Z"/>
      <path class="cls-3" d="M1629.62,395.87c16.02,3.12,35.26-6.27,46.09,11.59,6.28,10.36,2.34,21.27-8.86,27.6,5.87,9.44,11.42,18.36,16.78,26.98-24.27,12.01-22.39-19.51-38.57-24.57v25.85h-15.44v-67.46ZM1645.21,427.59c6.35.84,12.44,1.14,15.76-4.36,1.56-2.58,1.59-7.46.18-10.19-3.26-6.28-9.97-4.01-15.94-4.95v19.5Z"/>
      <path class="cls-3" d="M1126.17,534.21c5.91,9.44,11.48,18.33,16.87,26.94-24.18,11.55-22.27-19.35-38.46-24.43v25.53h-15.91v-66.78c15.95,2.74,34.77-6.6,46.24,10.43,7.2,10.7,2.18,21.38-8.73,28.32ZM1104.62,507.47v19.16c6.2.1,12.82,1.77,15.97-4.68,1.36-2.78.84-7.56-.69-10.44-3.32-6.28-9.67-3.77-15.28-4.04Z"/>
      <path class="cls-3" d="M928.28,296.94c16.14,2.6,35.32-6.28,46.35,11.53,6.35,10.25,1.93,21-8.83,27.56,5.7,9.35,11.19,18.34,16.51,27.06-24.28,11.15-22.13-20.09-38.35-24.47v25.67h-15.68v-67.34ZM944.25,307.59v22.77c5.81-2.11,11.52-2.87,15.17-6.03,1.97-1.71,2.03-9.44.12-11.02-3.73-3.08-9.45-3.74-15.29-5.71Z"/>
      <path class="cls-3" d="M865.45,533.39v28.81h-16.13v-66.04h16.21v27.55c16.22-7.53,16.72-36.48,41.6-26.64-6.96,9.47-14.14,19.24-21.39,29.09,7.73,11.68,15.52,23.48,23.27,35.19-26.53,11.07-24.57-23.73-43.55-27.96Z"/>
      <path class="cls-3" d="M796.41,533.97c5.94,9.31,11.69,18.31,17.28,27.07-24.66,11.95-22.36-19.65-38.54-24.48v25.74h-15.5v-66.79c15.68,2.88,34.75-7.01,45.91,11.03,6.71,10.84,2.5,21.52-9.16,27.42ZM775.1,526.94c6.52-.23,13.62,1.6,16.41-5.87,1.08-2.88.63-7.69-1.19-10.02-3.68-4.71-9.46-4.44-15.22-3.24v19.13Z"/>
      <path class="cls-3" d="M816.59,404.37c-2.43,3.58-4.18,6.16-6.63,9.77-14.47-4.24-31.45-12.69-37.83,10.79-2.21,8.12-.58,16.73,6.22,22.46,6.38,5.37,14.14,6.09,22.26,2.14v-9.26c-2.84-.16-5.6-.32-9-.51-.29-3.42-.57-6.78-.91-10.8h24.67v28.85c-17.61,8.32-36,11.83-50.96-4.43-13.61-14.8-13.93-33.19.46-47.6,15.29-15.31,33.45-12.55,51.72-1.4Z"/>
      <path class="cls-3" d="M1424.85,502.66c-2.13,9.68-6.33,11.73-14.54,7.88-8.53-3.99-17.77-4.26-24.04,3.96-6.88,9.01-7.03,19.44-.62,28.84,5.95,8.72,14.73,8.83,24.3,5.58v-8.71c-3.1-.53-6.07-1.04-8.97-1.54v-10.44h23.48v29.1c-18.16,8.27-36.92,11.61-51.27-5.91-12.83-15.67-12.9-34.05,3.14-48.13,14.95-13.12,31.87-10.73,48.52-.63Z"/>
      <path class="cls-3" d="M1075.78,305.21c-2.82,3.84-4.82,6.55-7.45,10.14-13.1-5.69-27.53-11.28-36.02,5.97-4.07,8.26-2.8,18.02,3.96,25.75,6.54,7.48,14.74,5.84,23.32,4.34v-9.2c-3.04-.64-6-1.26-9.17-1.93v-10.34h23.59v28.63c-14.81,8.04-31.19,11.32-45.96-.19-18.09-14.09-19.72-33.65-5.33-50.36,14.56-16.9,33.62-14.07,53.06-2.81Z"/>
      <path class="cls-3" d="M822.42,396.95h17.08c0,13.16-.03,26.23.01,39.3.03,8.86,4.1,14.58,13.35,14.46,8.89-.12,12.21-6.13,12.27-14.27.09-12.96.02-25.91.02-39.52h16.59c-4.82,20.93,8.57,44.8-11.17,61.65-10.1,8.62-24.66,9.34-35.85.27-20.89-16.92-7.18-40.79-12.3-61.89Z"/>
      <path class="cls-3" d="M1581.92,396.67h16.6c8.56,22.21,16.97,44.06,25.66,66.61h-15.99c-1.93-4.75-4.01-9.87-6.02-14.79h-24.06c-1.67,4.6-3.28,9.04-5.22,14.36h-16.43c8.56-22.26,17.02-44.24,25.45-66.17ZM1581.38,437.37h17.59c-2.67-7.81-5.11-14.97-8.77-25.7-3.64,10.62-6.1,17.79-8.82,25.7Z"/>
      <path class="cls-3" d="M1417,397.41c15.5-5.67,32.97,21.61,41.98,65.54-12.48,3.67-19.6-.87-20.34-14.35h-25.08c-1.89,4.71-3.95,9.83-5.95,14.79h-16.26c4.53-11.47,8.85-22.26,13.05-33.1,4.25-10.94,8.39-21.93,12.6-32.88ZM1434.48,437.5c-2.96-8.6-5.64-16.41-8.97-26.1-3.21,9.83-5.77,17.64-8.53,26.1h17.5Z"/>
      <path class="cls-3" d="M876.6,364.08v-66.35h42.82v11.88h-26.54v15.26h20.2v11.39c-6.69.31-13.33.62-20.28.95v14.6h26.51v12.27h-42.71Z"/>
      <path class="cls-3" d="M1126.4,309.74h-26.72v15.05h19.83v11.76h-19.57v15.38h26.43v12.3h-42.62v-66.56h42.65v12.08Z"/>
      <path class="cls-3" d="M1690.41,396.66h42.8v11.88h-26.83c-.24,5.37-.44,9.92-.67,15.18h21.17v12.07h-20.37c-.3,5.15-.55,9.66-.87,15.23h27.58v12.41h-42.82v-66.77Z"/>
      <path class="cls-3" d="M1142.29,463.28v-66.58h42.59v11.84h-26.58v15.3h20.1v11.84h-20.11v15.07h26.71v12.53h-42.71Z"/>
      <path class="cls-3" d="M1149.72,496h42.65v12.09h-26.39v14.69h19.98v12.21h-19.84v14.9h26.17v12.33h-42.58v-66.22Z"/>
      <path class="cls-3" d="M836.52,342.64c14.18-12.76,2.7-43.96,35.41-46.58-9.69,24.19-18.51,46.21-27.34,68.25h-14.65c-8.86-21.98-17.69-43.87-26.56-65.87,14.37-5.16,19.32,2.68,22.61,14.58,2.85,10.33,7.14,20.27,10.52,29.63Z"/>
      <path class="cls-3" d="M786.96,346.9c1.34-1.77,0-6.45-7.67-8.88-9.91-3.15-20.96-4.7-22.23-18.32-.84-8.99,1.84-16.45,10.39-20.19,11.11-4.86,21.99-3.66,33.05,3.92-1.4,3.12-2.81,6.28-4.75,10.62-2.94-.94-5.5-2.15-8.17-2.54-4.28-.63-8.67-1.12-12.93-.75-1,.09-2.91,5.12-2.3,5.71,2.72,2.64,5.95,5.17,9.47,6.51,9.26,3.54,19.19,6.13,19.67,18.63.38,9.79-3.04,18.2-12.72,21.54-12.53,4.32-24.37,2.18-34.45-6.77,7.07-20.5,20.05,2.72,32.65-9.47Z"/>
      <path class="cls-3" d="M926.78,516.56c13.45,7.68,33.62,6.75,29.74,29.23-1.67,9.65-7.91,15.41-17.08,17.1-10.83,2-20.81-.71-29.25-7.95,2.81-9,6.92-11.93,15.43-6.61,5.39,3.37,13,4.51,15.76-2.94,2.64-7.11-4.32-8.75-9.72-10.15-10.04-2.6-18.76-6.61-19.31-18.81-.43-9.8,4.14-17.14,13.32-19.93,10.64-3.24,21.28-2.6,30.75,5.86-1.92,3.29-3.64,6.22-5.25,8.98-8.07,1.53-19.2-11.94-24.4,5.21Z"/>
      <path class="cls-3" d="M1130.39,357.13c6.35-21.54,19.95,2.15,28.58-6.07,6.18-6.77,2.88-10.86-5.07-13.44-9.43-3.06-19.76-5.07-20.95-17.87-.86-9.24,2.1-16.91,10.79-20.49,11.08-4.57,22.03-3.28,31.72,3.47,1.22,23.8-27.54-6.49-27.5,16.6,17.1,6.84,41.96,11.85,24.21,37.64-10.48,15.22-27.73,9.25-41.77.16Z"/>
      <path class="cls-3" d="M1297.25,413.33c-3.48-1.42-5.99-2.63-8.61-3.47-5.23-1.67-11.52-3.3-13.67,3.29-2.25,6.9,4.79,7.31,9.19,9.05,8.66,3.43,18.91,5.05,19.57,17.43.51,9.69-2.12,18.1-11.77,21.94-12.49,4.96-24.22,3.01-35.04-5.79,2.74-7.3,5.32-13.02,14.21-7,4.65,3.15,10.11,3.79,15.03.6,1.53-.99,2.76-3.99,2.52-5.87-.7-5.6-5.95-6.31-10.09-7.38-10.08-2.62-18.83-6.24-19.32-18.61-.35-9,3.05-15.95,11.69-19.4,11.17-4.46,21.62-2.6,32.28,4.59-2.06,3.64-3.91,6.92-6,10.62Z"/>
      <path class="cls-3" d="M1047.3,402.58c-1.68,9.61-6.32,11.14-14.36,7.24-4.86-2.36-11.53-3.16-13.31,3.73-1.73,6.68,5.02,7.51,9.59,8.88,10.71,3.22,20.25,7.1,19.31,21.1-.68,10.04-5.62,16.9-15.06,19.38-11.43,3-22.22.85-31.87-7.09,2.78-6.85,5.19-13.01,13.96-7.44,4.76,3.03,10,4.37,15.05,1.38,1.56-.92,2.61-4.3,2.36-6.37-.74-6.24-6.79-6.27-11.01-7.63-9.53-3.09-17.58-6.68-17.98-18.72-.34-10.21,4.59-16.95,13.43-19.71,10.61-3.3,21.27-2.25,29.88,5.24Z"/>
      <path class="cls-3" d="M1506.07,402.94c-1.81,3.48-3.38,6.49-4.62,8.88-1.03.39-1.18.47-1.34.5-7.42,1.29-19.27-11.24-21.32,1.32-1.93,11.82,16.18,7.9,22.94,15.12,5.31,5.67,5.84,12.11,4.37,18.98-1.88,8.8-7.36,14.66-16.36,15.83-10.9,1.41-21.43.32-29.71-7.96,2.78-8.27,6.44-12.52,14.63-6.51,4.47,3.28,9.73,4.05,14.44.66,1.61-1.16,2.89-4.4,2.52-6.35-1.08-5.81-6.52-6.33-11.09-7.55-8.86-2.38-16.99-5.84-18.2-16.31-1.18-10.22,2.5-18.67,12.77-21.98,10.81-3.49,21.45-2.65,30.96,5.37Z"/>
      <path class="cls-3" d="M1007.6,508.06h-26.83v15.99h21.97v12.95h-22.35v25.56h-15.78v-66.36h43v11.85Z"/>
      <path class="cls-3" d="M1544.14,463.42h-15.87v-53.63h-18.36v-13.04h52.45v12.76h-18.21v53.91Z"/>
      <path class="cls-3" d="M931.45,450.65v12.7h-40.15v-66.46h15.38v53.76h24.78Z"/>
      <path class="cls-3" d="M990.22,364.28v-66.41h15.67v66.41h-15.67Z"/>
      <path class="cls-3" d="M1287.43,562.4h-15.09v-66.2h15.09v66.2Z"/>
      <path class="cls-3" d="M821.58,496.08h15.22v66.16h-15.22v-66.16Z"/>
      <path class="cls-3" d="M1418.15,394.07c-4.25-.49-9.92.34-9.79-6.1.05-2.67,2.88-7.08,5.03-7.48,2.72-.5,7.45,1.49,8.79,3.85,1.99,3.49.44,7.66-4.03,9.73Z"/>
      <path class="cls-3" d="M1438.94,380.21c1.27,1.3,2.64,2.7,4.17,4.28.28,4.96-.75,8.82-6.98,9.28-5.28.38-7.95-1.96-7.75-7.07.27-6.93,5.27-6.88,10.56-6.49Z"/>
      <path class="cls-3" d="M1031.39,480.46c4.57-1.67,9.31-2.72,11.54,2.18,1.04,2.29,0,7.2-1.88,8.67-1.92,1.51-6.66,1.37-8.99-.02-4.25-2.54-2.88-6.79-.67-10.83Z"/>
      <path class="cls-3" d="M1063.88,489.31c-.06,1.6-3.02,3.59-7.35,3.53-4.5-.06-6.57-3.21-6.53-7.25.04-4.42,3.08-6.39,7.28-6.35,4.38.05,6.76,2.29,6.6,10.06Z"/>
      <path class="cls-2" d="M345.58,13.37c47.36,31.62,94.19,63.52,141.66,94.44,57.72,37.6,115.95,74.43,174.08,111.39,4.6,2.92,6.69,6,6.8,11.49,2.81,133.31,5.76,266.61,8.67,399.91.04,1.99-.18,3.98-.27,5.78-110.3,65.87-220.46,131.65-330.86,197.57-106.27-67.77-212.65-135.61-321.1-204.78,0-40.58.48-82.68-.1-124.77-1.23-90.23-2.88-180.45-4.64-270.67-.49-25.13,22.85-27.16,36.66-36.22,87.14-57.2,175.41-112.69,263.34-168.68,8.2-5.22,16.65-10.02,25.75-15.48ZM323.72,542.86c-17.28,0-32.94.86-48.46-.2-25.23-1.72-55.32,5.14-70.94-21.25-25.86-43.7-22.54-92.26-14.65-140.17,8.07-49,23.13-61.51,72.65-62.43,26.94-.5,53.89-.09,83.05-.09,0-6.02.74-11.89-.49-17.31-.34-1.49-6.59-2.28-10.13-2.29-40.32-.14-80.65-.67-120.95.15-29.34.6-54.38,12.2-67.05,39.69-19.63,42.57-16.07,88.24-12.88,133.41,2.5,35.32,11.34,69.97,48.62,81.86,60.3,19.21,123.3,4.04,185.61,9.83v-120.67h-44.39v99.47ZM368.23,318.59c17.68,0,34.94-.56,52.14.16,16.83.71,35.47-3.56,49.23,9.45,21.66,20.49,16.61,47.71,15.59,73.5-1.22,30.66-19.22,42.21-47.96,41.52-15.32-.37-30.65-.07-47.42-.07,2.02,2.68,2.89,4.02,3.94,5.19,23.66,26.34,49.72,50.95,70.41,79.45,24.19,33.31,53.97,43.28,92.29,33.62-28.39-31.84-57.36-64.33-87.38-98,16.72-1.13,33.05-.11,45.61-10.32,32.17-26.18,24.34-62.62,22.25-96.67-2.22-36.26-19.02-53.26-54.71-56.15-24.99-2.02-50.23-1.17-75.35-1.47-12.79-.15-25.58-.03-38.64-.03v19.82Z"/>
      <path class="cls-1" d="M1416.98,437.5c2.76-8.46,5.32-16.27,8.53-26.1"/>
      <path class="cls-3" d="M323.72,542.86v-99.47h44.39v120.67c-62.31-5.8-125.31,9.38-185.61-9.83-37.28-11.88-46.12-46.53-48.62-81.86-3.2-45.17-6.76-90.84,12.88-133.41,12.67-27.48,37.71-39.09,67.05-39.69,40.3-.82,80.63-.29,120.95-.15,3.54.01,9.8.81,10.13,2.29,1.23,5.42.49,11.3.49,17.31-29.16,0-56.11-.41-83.05.09-49.51.92-64.58,13.43-72.65,62.43-7.89,47.91-11.21,96.47,14.65,140.17,15.62,26.39,45.7,19.53,70.94,21.25,15.53,1.06,31.18.2,48.46.2Z"/>
      <path class="cls-3" d="M368.23,318.59v-19.82c13.06,0,25.85-.13,38.64.03,25.13.3,50.36-.55,75.35,1.47,35.69,2.89,52.49,19.89,54.71,56.15,2.09,34.05,9.92,70.49-22.25,96.67-12.55,10.22-28.88,9.19-45.61,10.32,30.02,33.67,58.99,66.17,87.38,98-38.32,9.66-68.1-.31-92.29-33.62-20.69-28.5-46.75-53.1-70.41-79.45-1.05-1.17-1.92-2.51-3.94-5.19,16.77,0,32.11-.3,47.42.07,28.74.69,46.74-10.86,47.96-41.52,1.02-25.79,6.07-53.01-15.59-73.5-13.76-13.01-32.4-8.75-49.23-9.45-17.21-.72-34.47-.16-52.14-.16Z"/>
    </g>
  </g>
</svg>