<svg width="30" height="30" viewBox="0 0 30 30" fill="none" xmlns="http://www.w3.org/2000/svg">
<path d="M25.9259 0C26.7854 0 27.6097 0.351189 28.2175 0.976311C28.8252 1.60143 29.1667 2.44928 29.1667 3.33333V26.6667C29.1667 27.5507 28.8252 28.3986 28.2175 29.0237C27.6097 29.6488 26.7854 30 25.9259 30H3.24074C2.38124 30 1.55695 29.6488 0.949191 29.0237C0.341434 28.3986 0 27.5507 0 26.6667V3.33333C0 2.44928 0.341434 1.60143 0.949191 0.976311C1.55695 0.351189 2.38124 0 3.24074 0H25.9259ZM25.1157 25.8333V17C25.1157 15.559 24.5592 14.177 23.5686 13.1581C22.5779 12.1391 21.2343 11.5667 19.8333 11.5667C18.456 11.5667 16.8519 12.4333 16.0741 13.7333V11.8833H11.5532V25.8333H16.0741V17.6167C16.0741 16.3333 17.0787 15.2833 18.3264 15.2833C18.928 15.2833 19.505 15.5292 19.9305 15.9668C20.3559 16.4043 20.5949 16.9978 20.5949 17.6167V25.8333H25.1157ZM6.28704 9.26667C7.00902 9.26667 7.70142 8.97167 8.21194 8.44657C8.72245 7.92146 9.00926 7.20927 9.00926 6.46667C9.00926 4.91667 7.79398 3.65 6.28704 3.65C5.56076 3.65 4.86423 3.94675 4.35068 4.47498C3.83712 5.00321 3.54861 5.71964 3.54861 6.46667C3.54861 8.01667 4.78009 9.26667 6.28704 9.26667ZM8.53935 25.8333V11.8833H4.05093V25.8333H8.53935Z" fill="#373737"/>
</svg>
