<svg width="31" height="30" viewBox="0 0 31 30" fill="none" xmlns="http://www.w3.org/2000/svg">
<path d="M28.4792 0H2.52091C2.09546 0 1.68744 0.173839 1.3866 0.483274C1.08576 0.792709 0.916748 1.21239 0.916748 1.65V28.35C0.916748 28.7876 1.08576 29.2073 1.3866 29.5167C1.68744 29.8262 2.09546 30 2.52091 30H15.4917C16.044 30 16.4917 29.5523 16.4917 29V19.375C16.4917 18.8227 16.044 18.375 15.4917 18.375H13.7001C13.1478 18.375 12.7001 17.9273 12.7001 17.375V14.875C12.7001 14.3227 13.1478 13.875 13.7001 13.875H15.4917C16.044 13.875 16.4917 13.4273 16.4917 12.875V10.5C16.4132 9.70763 16.5042 8.90719 16.7582 8.15481C17.0123 7.40242 17.4233 6.71632 17.9624 6.14462C18.5016 5.57292 19.1558 5.12946 19.8792 4.84536C20.6026 4.56125 21.3777 4.44338 22.1501 4.5C22.9875 4.49405 23.8247 4.52521 24.6592 4.59334C25.1662 4.63474 25.548 5.06432 25.548 5.573V7.73C25.548 8.28228 25.1003 8.73 24.548 8.73H23.2292C21.3917 8.73 21.0418 9.63 21.0418 10.935V12.83C21.0418 13.3823 21.4895 13.83 22.0418 13.83H24.2824C24.8845 13.83 25.35 14.3581 25.2745 14.9554L24.9585 17.4554C24.8954 17.9552 24.4702 18.33 23.9664 18.33H22.0417C21.4895 18.33 21.0418 18.7777 21.0418 19.33V29C21.0418 29.5523 21.4895 30 22.0418 30H28.4792C28.6899 30 28.8985 29.9573 29.0931 29.8744C29.2878 29.7915 29.4646 29.6699 29.6136 29.5167C29.7625 29.3635 29.8807 29.1816 29.9613 28.9814C30.0419 28.7812 30.0834 28.5667 30.0834 28.35V1.65C30.0834 1.43332 30.0419 1.21876 29.9613 1.01857C29.8807 0.818385 29.7625 0.636491 29.6136 0.483274C29.4646 0.330057 29.2878 0.208519 29.0931 0.125599C28.8985 0.0426786 28.6899 0 28.4792 0Z" fill="#373737"/>
</svg>
