<svg width="31" height="30" viewBox="0 0 31 30" fill="none" xmlns="http://www.w3.org/2000/svg">
<path d="M16.9991 0C18.6397 0.0045 19.4724 0.0135 20.1914 0.0345L20.4743 0.045C20.801 0.057 21.1233 0.0719999 21.5126 0.0899999C23.0643 0.165 24.1231 0.417 25.052 0.7875C26.0145 1.1685 26.8253 1.6845 27.6362 2.517C28.378 3.2666 28.9519 4.17371 29.3176 5.175C29.6778 6.1305 29.9228 7.2195 29.9958 8.817C30.0133 9.216 30.0278 9.5475 30.0395 9.885L30.0483 10.176C30.0701 10.914 30.0789 11.7705 30.0818 13.458L30.0833 14.577V16.542C30.0868 17.6361 30.0756 18.7302 30.0497 19.824L30.041 20.115C30.0293 20.4525 30.0147 20.784 29.9972 21.183C29.9243 22.7805 29.6764 23.868 29.3176 24.825C28.9519 25.8263 28.378 26.7334 27.6362 27.483C26.9074 28.246 26.0255 28.8363 25.052 29.2125C24.1231 29.583 23.0643 29.835 21.5126 29.91L20.4743 29.955L20.1914 29.964C19.4724 29.985 18.6397 29.9955 16.9991 29.9985L15.9112 30H14.0022C12.938 30.0039 11.8738 29.9924 10.8099 29.9655L10.527 29.9565C10.1808 29.943 9.83471 29.9275 9.48868 29.91C7.93702 29.835 6.87827 29.583 5.94785 29.2125C4.97489 28.8361 4.0935 28.2459 3.36514 27.483C2.62277 26.7336 2.04843 25.8264 1.68223 24.825C1.32202 23.8695 1.07702 22.7805 1.0041 21.183L0.960351 20.115L0.953059 19.824C0.926177 18.7302 0.914023 17.6361 0.916601 16.542V13.458C0.912564 12.3639 0.92326 11.2698 0.948684 10.176L0.958893 9.885C0.970559 9.5475 0.985143 9.216 1.00264 8.817C1.07556 7.2195 1.32056 6.132 1.68077 5.175C2.04782 4.1733 2.62318 3.26615 3.3666 2.517C4.09453 1.75432 4.97542 1.16411 5.94785 0.7875C6.87827 0.417 7.93556 0.165 9.48868 0.0899999C9.8766 0.0719999 10.2004 0.057 10.527 0.045L10.8099 0.0359999C11.8733 0.00934906 12.9371 -0.00215205 14.0008 0.00149989L16.9991 0ZM15.4999 7.5C13.5661 7.5 11.7114 8.29018 10.3439 9.6967C8.97649 11.1032 8.20827 13.0109 8.20827 15C8.20827 16.9891 8.97649 18.8968 10.3439 20.3033C11.7114 21.7098 13.5661 22.5 15.4999 22.5C17.4338 22.5 19.2885 21.7098 20.6559 20.3033C22.0234 18.8968 22.7916 16.9891 22.7916 15C22.7916 13.0109 22.0234 11.1032 20.6559 9.6967C19.2885 8.29018 17.4338 7.5 15.4999 7.5ZM15.4999 10.5C16.0745 10.4999 16.6434 10.6162 17.1742 10.8423C17.7051 11.0683 18.1874 11.3997 18.5937 11.8175C19.0001 12.2353 19.3224 12.7313 19.5424 13.2772C19.7623 13.8232 19.8756 14.4083 19.8757 14.9993C19.8758 15.5902 19.7627 16.1754 19.5429 16.7214C19.3231 17.2674 19.001 17.7635 18.5948 18.1815C18.1886 18.5994 17.7063 18.9309 17.1756 19.1572C16.6448 19.3834 16.0759 19.4999 15.5014 19.5C14.3411 19.5 13.2283 19.0259 12.4078 18.182C11.5873 17.3381 11.1264 16.1935 11.1264 15C11.1264 13.8065 11.5873 12.6619 12.4078 11.818C13.2283 10.9741 14.3411 10.5 15.5014 10.5M23.1576 5.25C22.6742 5.25 22.2105 5.44754 21.8686 5.79917C21.5268 6.15081 21.3347 6.62772 21.3347 7.125C21.3347 7.62228 21.5268 8.09919 21.8686 8.45083C22.2105 8.80246 22.6742 9 23.1576 9C23.6411 9 24.1048 8.80246 24.4466 8.45083C24.7885 8.09919 24.9806 7.62228 24.9806 7.125C24.9806 6.62772 24.7885 6.15081 24.4466 5.79917C24.1048 5.44754 23.6411 5.25 23.1576 5.25Z" fill="#373737"/>
</svg>
