<?xml version="1.0" encoding="UTF-8"?>
<svg id="Layer_2" data-name="Layer 2" xmlns="http://www.w3.org/2000/svg" viewBox="0 0 2995.78 1664.32">
  <defs>
    <style>
      .cls-1 {
        fill: #0a0b09;
      }

      .cls-2 {
        fill: #ffb3c7;
      }
    </style>
  </defs>
  <g id="Layer_1-2" data-name="Layer 1">
    <g>
      <rect class="cls-2" width="2995.78" height="1664.32" rx="287.66" ry="287.66"/>
      <path class="cls-1" d="M2715.78,975.03c-39.34.15-71.11,32.16-70.97,71.5,0,.05,0,.09,0,.13-.22,39.34,31.49,71.41,70.83,71.63.04,0,.09,0,.13,0,39.14,0,70.97-32.09,70.97-71.63.22-39.34-31.49-71.41-70.83-71.63-.04,0-.09,0-.13,0ZM2482.24,919.71c0-54.19-45.87-98.06-102.46-98.06s-102.46,43.94-102.46,98.06,45.94,98,102.52,98,102.39-43.87,102.39-98h0ZM2482.64,729.11h113.04v381.13h-113.04v-24.37c-32.96,22.75-72.06,34.92-112.11,34.88-110.05,0-199.25-90.01-199.25-201.05s89.21-201.05,199.25-201.05c41.61,0,80.15,12.85,112.11,34.88v-24.43ZM1577.78,778.77v-49.6h-115.77v381.06h116.04v-177.95c0-60.05,64.44-92.27,109.18-92.27h1.33v-110.84c-45.94,0-88.08,19.84-110.78,49.6ZM1289.39,919.71c0-54.19-45.87-98.06-102.46-98.06s-102.46,43.94-102.46,98.06,45.94,98,102.52,98,102.39-43.87,102.39-98h0ZM1289.79,729.11h113.11v381.13h-113.11v-24.37c-31.96,21.97-70.5,34.88-112.11,34.88-110.05,0-199.25-90.01-199.25-201.05s89.21-201.05,199.25-201.05c41.61,0,80.15,12.85,112.11,34.88v-24.43ZM1970.36,718.92c-45.14,0-87.88,14.11-116.5,53.13v-42.87h-112.57v381.06h113.97v-200.25c0-57.92,38.48-86.35,84.88-86.35,49.66,0,78.29,29.96,78.29,85.55v201.05h112.91v-242.33c0-88.68-69.9-148.99-160.97-148.99h0ZM813.72,1110.24h118.37v-550.89h-118.37v550.89ZM293.79,1110.37h125.36v-551.16h-125.29l-.07,551.16ZM732.24,559.21c0,119.3-46.07,230.34-128.22,312.83l173.22,238.33h-154.78l-188.2-258.97,48.6-36.75c80.22-60.34,127.18-155.06,126.62-255.44h122.76Z"/>
    </g>
  </g>
</svg>