<?xml version="1.0" encoding="UTF-8"?>
<svg id="Layer_2" data-name="Layer 2" xmlns="http://www.w3.org/2000/svg" viewBox="0 0 86.4 72">
  <g id="Layer_1-2" data-name="Layer 1">
    <path d="M16.53,0v72H0V0h16.53ZM57.79,0c0,15.1-5.7,29.18-15.89,39.84l-1,1.02,22.83,31.14h-20.4l-24.81-33.84,6.4-4.8c10.29-7.7,16.33-19.36,16.69-32.13l.02-1.24h16.16ZM77.4,54c2.39,0,4.68.95,6.36,2.64,1.69,1.69,2.64,3.98,2.64,6.36s-.95,4.68-2.64,6.36c-1.69,1.69-3.98,2.64-6.36,2.64s-4.68-.95-6.36-2.64c-1.69-1.69-2.64-3.98-2.64-6.36s.95-4.68,2.64-6.36c1.69-1.69,3.98-2.64,6.36-2.64Z"/>
  </g>
</svg>