<?xml version="1.0" encoding="UTF-8"?>
<svg id="Layer_2" data-name="Layer 2" xmlns="http://www.w3.org/2000/svg" xmlns:xlink="http://www.w3.org/1999/xlink" viewBox="0 0 577.62 175.83">
  <defs>
    <style>
      .cls-1 {
        fill: url(#linear-gradient-2);
      }

      .cls-1, .cls-2, .cls-3, .cls-4 {
        fill-rule: evenodd;
      }

      .cls-2 {
        fill: url(#linear-gradient-3);
      }

      .cls-3 {
        fill: url(#linear-gradient-4);
      }

      .cls-5 {
        fill: #4a4a49;
      }

      .cls-4 {
        fill: url(#linear-gradient);
      }
    </style>
    <linearGradient id="linear-gradient" x1="-389.35" y1="470.39" x2="-389.56" y2="470.9" gradientTransform="translate(49104.77 73156.9) scale(125.82 -155.25)" gradientUnits="userSpaceOnUse">
      <stop offset="0" stop-color="#ef2131"/>
      <stop offset="1" stop-color="#fecf2c"/>
    </linearGradient>
    <linearGradient id="linear-gradient-2" x1="-388.73" y1="470.52" x2="-389.23" y2="469.58" gradientTransform="translate(44753.2 59249.35) scale(114.75 -125.78)" gradientUnits="userSpaceOnUse">
      <stop offset="0" stop-color="#fbc52c"/>
      <stop offset=".26" stop-color="#f87130"/>
      <stop offset=".56" stop-color="#ef52e2"/>
      <stop offset="1" stop-color="#661eec"/>
    </linearGradient>
    <linearGradient id="linear-gradient-3" x1="-389.4" y1="470.8" x2="-389.2" y2="470.3" gradientTransform="translate(49054.7 73136.34) scale(125.82 -155.25)" gradientUnits="userSpaceOnUse">
      <stop offset="0" stop-color="#78f6d8"/>
      <stop offset=".27" stop-color="#77d1f6"/>
      <stop offset=".55" stop-color="#70a4f3"/>
      <stop offset="1" stop-color="#661eec"/>
    </linearGradient>
    <linearGradient id="linear-gradient-4" x1="-389.41" y1="469.79" x2="-388.92" y2="470.73" gradientTransform="translate(44714.22 59199.24) scale(114.75 -125.78)" gradientUnits="userSpaceOnUse">
      <stop offset="0" stop-color="#536eed"/>
      <stop offset=".25" stop-color="#54c3ec"/>
      <stop offset=".56" stop-color="#64d769"/>
      <stop offset="1" stop-color="#fecf2c"/>
    </linearGradient>
  </defs>
  <g id="Layer_1-2" data-name="Layer 1">
    <g id="_02-Secondary-_Horizontal_Colour_Light-background_Swish_Logo_Secondary_Light-BG" data-name="02-Secondary-(Horizontal)/Colour/Light-background/Swish_Logo_Secondary_Light-BG">
      <g id="Wordmark_Swish" data-name="Wordmark/Swish">
        <path id="swish_" data-name="swish®" class="cls-5" d="M549.06,48.9c0-2.03.37-3.93,1.12-5.71.75-1.78,1.76-3.32,3.04-4.65,1.28-1.32,2.78-2.36,4.5-3.12,1.72-.76,3.57-1.14,5.54-1.14s3.87.38,5.62,1.14c1.75.76,3.27,1.8,4.56,3.12,1.29,1.32,2.31,2.87,3.06,4.65.75,1.78,1.12,3.68,1.12,5.71s-.37,3.93-1.12,5.71c-.75,1.78-1.77,3.32-3.06,4.65-1.29,1.32-2.81,2.36-4.56,3.12-1.75.76-3.62,1.14-5.62,1.14s-3.82-.38-5.54-1.14c-1.72-.76-3.22-1.8-4.5-3.12-1.28-1.32-2.29-2.87-3.04-4.65-.75-1.78-1.12-3.68-1.12-5.71ZM551.98,48.9c0,1.68.29,3.24.86,4.69.57,1.44,1.37,2.7,2.38,3.77s2.21,1.91,3.58,2.52,2.86.92,4.46.92,3.13-.31,4.52-.92c1.39-.61,2.59-1.46,3.62-2.52,1.03-1.07,1.83-2.32,2.42-3.77.59-1.44.88-3,.88-4.69s-.29-3.24-.88-4.69c-.59-1.44-1.39-2.7-2.42-3.77-1.03-1.07-2.23-1.91-3.62-2.52-1.39-.61-2.89-.92-4.52-.92s-3.09.31-4.46.92-2.57,1.46-3.58,2.52-1.81,2.32-2.38,3.77c-.57,1.44-.86,3-.86,4.69ZM558.38,42.61c0-.88.44-1.32,1.32-1.32h4.52c1.44,0,2.59.41,3.44,1.24.85.83,1.28,1.95,1.28,3.36,0,.59-.09,1.11-.26,1.56-.17.45-.39.85-.66,1.18-.27.33-.56.61-.88.82-.32.21-.64.36-.96.44v.08s.07.08.12.16c.05.05.11.14.16.26.05.12.13.26.24.42l2.08,4.05c.24.45.29.82.16,1.1-.13.28-.43.42-.88.42h-.48c-.75,0-1.27-.32-1.56-.96l-2.32-4.89h-2.48v4.57c0,.85-.41,1.28-1.24,1.28h-.36c-.83,0-1.24-.43-1.24-1.28v-12.5ZM563.62,48.46c.77,0,1.37-.23,1.8-.68.43-.45.64-1.08.64-1.88s-.21-1.38-.64-1.8c-.43-.43-1.01-.64-1.76-.64h-2.44v5.01h2.4ZM447.02,58.04c4.52,0,8.36.58,11.51,1.73s5.61,2.22,7.38,3.2c1.51.8,2.39,1.86,2.66,3.2s.04,2.75-.67,4.26l-1.33,2.4c-.8,1.6-1.82,2.53-3.06,2.8s-2.7.04-4.39-.67c-1.51-.71-3.33-1.44-5.45-2.2-2.13-.75-4.61-1.13-7.45-1.13s-5.19.58-6.78,1.73c-1.6,1.15-2.39,2.8-2.39,4.93,0,1.86.82,3.37,2.46,4.53,1.64,1.15,3.72,2.18,6.25,3.06,2.53.89,5.23,1.84,8.11,2.86,2.88,1.02,5.59,2.33,8.11,3.93,2.53,1.6,4.61,3.64,6.25,6.13,1.64,2.49,2.46,5.64,2.46,9.46,0,3.02-.6,5.79-1.8,8.32s-2.93,4.73-5.19,6.59c-2.26,1.86-4.99,3.33-8.18,4.4-3.19,1.07-6.74,1.6-10.64,1.6-5.5,0-10.13-.8-13.9-2.4s-6.67-3.11-8.71-4.53c-1.51-.89-2.35-2-2.53-3.33-.18-1.33.22-2.75,1.2-4.26l1.6-2.4c.98-1.42,2.06-2.22,3.26-2.4,1.2-.18,2.64.18,4.32,1.07,1.6.89,3.66,1.89,6.18,3,2.53,1.11,5.52,1.66,8.98,1.66,2.93,0,5.23-.62,6.92-1.86,1.68-1.24,2.53-2.93,2.53-5.06,0-1.86-.82-3.35-2.46-4.46-1.64-1.11-3.72-2.13-6.25-3.06-2.53-.93-5.23-1.93-8.11-3-2.88-1.07-5.59-2.4-8.11-4s-4.61-3.64-6.25-6.13c-1.64-2.49-2.46-5.68-2.46-9.59,0-3.29.69-6.22,2.06-8.79,1.37-2.58,3.24-4.71,5.59-6.39,2.35-1.69,5.1-2.97,8.25-3.86s6.5-1.33,10.04-1.33ZM249.31,58.04c4.52,0,8.36.58,11.51,1.73s5.61,2.22,7.38,3.2c1.51.8,2.39,1.86,2.66,3.2.27,1.33.04,2.75-.67,4.26l-1.33,2.4c-.8,1.6-1.82,2.53-3.06,2.8s-2.7.04-4.39-.67c-1.51-.71-3.33-1.44-5.45-2.2s-4.61-1.13-7.45-1.13-5.19.58-6.78,1.73c-1.6,1.15-2.39,2.8-2.39,4.93,0,1.86.82,3.37,2.46,4.53,1.64,1.15,3.72,2.18,6.25,3.06,2.53.89,5.23,1.84,8.11,2.86,2.88,1.02,5.59,2.33,8.11,3.93,2.53,1.6,4.61,3.64,6.25,6.13,1.64,2.49,2.46,5.64,2.46,9.46,0,3.02-.6,5.79-1.8,8.32s-2.93,4.73-5.19,6.59c-2.26,1.86-4.99,3.33-8.18,4.4-3.19,1.07-6.74,1.6-10.64,1.6-5.5,0-10.13-.8-13.9-2.4s-6.67-3.11-8.71-4.53c-1.51-.89-2.35-2-2.53-3.33-.18-1.33.22-2.75,1.2-4.26l1.6-2.4c.98-1.42,2.06-2.22,3.26-2.4,1.2-.18,2.64.18,4.32,1.07,1.6.89,3.66,1.89,6.18,3,2.53,1.11,5.52,1.66,8.98,1.66,2.93,0,5.23-.62,6.92-1.86,1.68-1.24,2.53-2.93,2.53-5.06,0-1.86-.82-3.35-2.46-4.46-1.64-1.11-3.72-2.13-6.25-3.06-2.53-.93-5.23-1.93-8.11-3-2.88-1.07-5.59-2.4-8.11-4s-4.61-3.64-6.25-6.13c-1.64-2.49-2.46-5.68-2.46-9.59,0-3.29.69-6.22,2.06-8.79,1.37-2.58,3.24-4.71,5.59-6.39,2.35-1.69,5.1-2.97,8.25-3.86,3.15-.89,6.5-1.33,10.04-1.33ZM491.83,33c3.72,0,5.59,1.86,5.59,5.59v27.44c0,.89-.02,1.66-.07,2.33-.04.67-.11,1.27-.2,1.8-.09.62-.13,1.15-.13,1.6h.27c.8-1.6,1.93-3.22,3.39-4.86,1.46-1.64,3.19-3.13,5.19-4.46s4.26-2.4,6.78-3.2,5.25-1.2,8.18-1.2c7.54,0,13.37,2.04,17.49,6.13,4.12,4.08,6.18,10.66,6.18,19.71v38.09c0,3.73-1.86,5.59-5.59,5.59h-5.72c-3.72,0-5.59-1.86-5.59-5.59v-34.63c0-4.17-.71-7.53-2.13-10.06-1.42-2.53-4.26-3.8-8.51-3.8-2.93,0-5.61.58-8.05,1.73s-4.5,2.73-6.18,4.73c-1.68,2-2.99,4.37-3.92,7.13-.93,2.75-1.4,5.73-1.4,8.92v25.97c0,3.73-1.86,5.59-5.59,5.59h-5.72c-3.72,0-5.59-1.86-5.59-5.59V38.59c0-3.73,1.86-5.59,5.59-5.59h5.72ZM403.46,59.64c3.64,0,5.45,1.86,5.45,5.59v56.74c0,3.73-1.82,5.59-5.45,5.59h-5.85c-3.64,0-5.45-1.86-5.45-5.59v-56.74c0-3.73,1.82-5.59,5.45-5.59h5.85ZM290.6,59.64c3.37,0,5.36,1.64,5.99,4.93l10.91,39.69c.18.98.33,1.86.47,2.66.13.8.29,1.55.47,2.26.18.8.31,1.55.4,2.26h.27c.09-.71.22-1.47.4-2.26.18-.71.33-1.47.47-2.26.13-.8.33-1.69.6-2.66l11.44-39.69c.62-3.2,2.66-4.8,6.12-4.8h5.05c3.28,0,5.32,1.6,6.12,4.8l11.31,39.69c.27.98.47,1.86.6,2.66.13.8.29,1.55.47,2.26.18.8.31,1.55.4,2.26h.27c.09-.71.22-1.47.4-2.26.18-.71.33-1.47.47-2.26.13-.8.33-1.69.6-2.66l10.77-39.69c.8-3.29,2.84-4.93,6.12-4.93h6.12c2.04,0,3.46.58,4.26,1.73s.93,2.66.4,4.53l-17.42,57.01c-.89,3.11-2.97,4.66-6.25,4.66h-8.91c-3.37,0-5.45-1.6-6.25-4.8l-10.24-33.96c-.27-.89-.49-1.78-.67-2.66s-.35-1.69-.53-2.4c-.18-.8-.31-1.55-.4-2.26h-.27c-.18.71-.35,1.47-.53,2.26-.18.71-.35,1.51-.53,2.4-.18.89-.4,1.78-.67,2.66l-10.24,33.96c-.8,3.2-2.84,4.8-6.12,4.8h-9.18c-3.19,0-5.23-1.55-6.12-4.66l-17.56-57.01c-.53-1.86-.38-3.37.47-4.53s2.24-1.73,4.19-1.73h6.38Z"/>
      </g>
      <g id="Symbol_Colour" data-name="Symbol/Colour">
        <g id="Right-Swirl">
          <path id="Base-Shape" class="cls-4" d="M50.01,167.27c35.32,16.89,78.91,8.53,105.25-22.85,31.21-37.19,26.37-92.64-10.83-123.84l-24.73,29.46c29.06,24.38,32.85,67.69,8.46,96.75-19.44,23.17-51.46,30.9-78.15,20.47"/>
          <path id="Light-Cast" class="cls-1" d="M50.01,167.27c35.32,16.89,78.91,8.53,105.25-22.85,3.23-3.84,6.06-7.88,8.52-12.07,4.16-25.84-4.99-53.16-26.5-71.21-5.47-4.59-11.38-8.28-17.57-11.1,29.05,24.38,32.84,67.69,8.46,96.75-19.44,23.17-51.46,30.9-78.15,20.47"/>
        </g>
        <g id="Left-Swirl">
          <path id="Base-shape" class="cls-2" d="M125.82,8.56C90.5-8.33,46.91.03,20.57,31.41c-31.21,37.19-26.37,92.64,10.83,123.84l24.73-29.46c-29.06-24.38-32.85-67.69-8.46-96.75C67.11,5.87,99.13-1.87,125.82,8.56"/>
          <path id="Shadow" class="cls-3" d="M125.82,8.56C90.5-8.33,46.91.03,20.57,31.41c-3.23,3.84-6.06,7.88-8.52,12.07-4.16,25.84,4.99,53.16,26.5,71.21,5.47,4.59,11.38,8.28,17.57,11.1-29.05-24.38-32.84-67.69-8.46-96.75C67.11,5.87,99.13-1.87,125.82,8.56"/>
        </g>
      </g>
    </g>
  </g>
</svg>