<?xml version="1.0" encoding="UTF-8"?>
<svg id="Layer_2" data-name="Layer 2" xmlns="http://www.w3.org/2000/svg" xmlns:xlink="http://www.w3.org/1999/xlink" viewBox="0 0 419.59 566">
  <defs>
    <style>
      .cls-1 {
        fill: url(#linear-gradient-2);
      }

      .cls-1, .cls-2, .cls-3, .cls-4 {
        fill-rule: evenodd;
      }

      .cls-2 {
        fill: url(#linear-gradient-3);
      }

      .cls-3 {
        fill: url(#linear-gradient-4);
      }

      .cls-5 {
        fill: #4a4a49;
      }

      .cls-4 {
        fill: url(#linear-gradient);
      }
    </style>
    <linearGradient id="linear-gradient" x1="-469.9" y1="667.02" x2="-470.11" y2="667.53" gradientTransform="translate(141367.85 247425.22) scale(300.26 -370.47)" gradientUnits="userSpaceOnUse">
      <stop offset="0" stop-color="#ef2131"/>
      <stop offset="1" stop-color="#fecf2c"/>
    </linearGradient>
    <linearGradient id="linear-gradient-2" x1="-469.43" y1="667.53" x2="-469.93" y2="666.59" gradientTransform="translate(128895.96 200525.41) scale(273.83 -300.16)" gradientUnits="userSpaceOnUse">
      <stop offset="0" stop-color="#fbc52c"/>
      <stop offset=".26" stop-color="#f87130"/>
      <stop offset=".56" stop-color="#ef52e2"/>
      <stop offset="1" stop-color="#661eec"/>
    </linearGradient>
    <linearGradient id="linear-gradient-3" x1="-469.95" y1="667.43" x2="-469.75" y2="666.93" gradientTransform="translate(141248.33 247376.16) scale(300.25 -370.47)" gradientUnits="userSpaceOnUse">
      <stop offset="0" stop-color="#78f6d8"/>
      <stop offset=".27" stop-color="#77d1f6"/>
      <stop offset=".55" stop-color="#70a4f3"/>
      <stop offset="1" stop-color="#661eec"/>
    </linearGradient>
    <linearGradient id="linear-gradient-4" x1="-470.12" y1="666.81" x2="-469.62" y2="667.74" gradientTransform="translate(128802.93 200405.76) scale(273.83 -300.16)" gradientUnits="userSpaceOnUse">
      <stop offset="0" stop-color="#536eed"/>
      <stop offset=".25" stop-color="#54c3ec"/>
      <stop offset=".56" stop-color="#64d769"/>
      <stop offset="1" stop-color="#fecf2c"/>
    </linearGradient>
  </defs>
  <g id="Layer_1-2" data-name="Layer 1">
    <g id="_01-Primary-_Vertical_Colour_Light-background_Swish_Logo_Primary_Light-BG" data-name="01-Primary-(Vertical)/Colour/Light-background/Swish_Logo_Primary_Light-BG">
      <g id="Wordmark_Swish" data-name="Wordmark/Swish">
        <path id="swish_" data-name="swish®" class="cls-5" d="M381.41,485.88c0-2.03.37-3.93,1.12-5.7.75-1.77,1.76-3.32,3.04-4.64,1.28-1.32,2.78-2.36,4.51-3.12,1.72-.76,3.57-1.14,5.55-1.14s3.88.38,5.63,1.14c1.75.76,3.27,1.8,4.57,3.12s2.32,2.87,3.06,4.64c.75,1.77,1.12,3.67,1.12,5.7s-.37,3.93-1.12,5.7c-.75,1.77-1.77,3.32-3.06,4.64-1.29,1.32-2.82,2.36-4.57,3.12-1.75.76-3.62,1.14-5.63,1.14s-3.82-.38-5.55-1.14c-1.72-.76-3.22-1.8-4.51-3.12-1.28-1.32-2.3-2.87-3.04-4.64-.75-1.77-1.12-3.67-1.12-5.7ZM384.33,485.88c0,1.68.29,3.24.86,4.68.57,1.44,1.37,2.69,2.38,3.76,1.01,1.07,2.21,1.91,3.58,2.52,1.37.61,2.86.92,4.46.92s3.14-.31,4.53-.92c1.39-.61,2.6-1.45,3.62-2.52s1.84-2.32,2.42-3.76c.59-1.44.88-3,.88-4.68s-.29-3.24-.88-4.68c-.59-1.44-1.39-2.69-2.42-3.76-1.03-1.07-2.24-1.91-3.62-2.52-1.39-.61-2.9-.92-4.53-.92s-3.09.31-4.46.92c-1.37.61-2.57,1.45-3.58,2.52-1.01,1.07-1.81,2.32-2.38,3.76-.57,1.44-.86,3-.86,4.68ZM390.74,479.6c0-.88.44-1.32,1.32-1.32h4.53c1.44,0,2.59.41,3.44,1.24.85.83,1.28,1.95,1.28,3.36,0,.59-.09,1.11-.26,1.56-.17.45-.39.85-.66,1.18-.27.33-.56.61-.88.82s-.64.36-.96.44v.08s.07.08.12.16c.05.05.11.14.16.26.05.12.13.26.24.42l2.08,4.04c.24.45.29.82.16,1.1-.13.28-.43.42-.88.42h-.48c-.75,0-1.27-.32-1.56-.96l-2.32-4.88h-2.48v4.56c0,.85-.41,1.28-1.24,1.28h-.36c-.83,0-1.24-.43-1.24-1.28v-12.48ZM395.98,485.44c.77,0,1.37-.23,1.8-.68s.64-1.08.64-1.88-.21-1.37-.64-1.8c-.43-.43-1.01-.64-1.76-.64h-2.44v5h2.4ZM279.26,495c4.53,0,8.37.58,11.52,1.73,3.15,1.15,5.61,2.22,7.39,3.19,1.51.8,2.4,1.86,2.66,3.19.27,1.33.04,2.75-.67,4.25l-1.33,2.39c-.8,1.6-1.82,2.53-3.06,2.79s-2.71.04-4.39-.66c-1.51-.71-3.33-1.44-5.46-2.19s-4.62-1.13-7.46-1.13-5.19.58-6.79,1.73c-1.6,1.15-2.4,2.79-2.4,4.92,0,1.86.82,3.37,2.46,4.52,1.64,1.15,3.73,2.17,6.26,3.06,2.53.89,5.24,1.84,8.12,2.86,2.88,1.02,5.59,2.33,8.12,3.92s4.62,3.63,6.26,6.12c1.64,2.48,2.46,5.63,2.46,9.44,0,3.01-.6,5.78-1.8,8.31s-2.93,4.72-5.19,6.58c-2.26,1.86-4.99,3.32-8.19,4.39-3.2,1.06-6.75,1.6-10.65,1.6-5.5,0-10.14-.8-13.91-2.39-3.77-1.6-6.68-3.1-8.72-4.52-1.51-.89-2.35-1.99-2.53-3.32-.18-1.33.22-2.75,1.2-4.25l1.6-2.39c.98-1.42,2.06-2.22,3.26-2.39s2.64.18,4.33,1.06c1.6.89,3.66,1.88,6.19,2.99,2.53,1.11,5.53,1.66,8.99,1.66,2.93,0,5.24-.62,6.92-1.86s2.53-2.93,2.53-5.05c0-1.86-.82-3.35-2.46-4.45-1.64-1.11-3.73-2.13-6.26-3.06-2.53-.93-5.24-1.93-8.12-2.99-2.88-1.06-5.59-2.39-8.12-3.99-2.53-1.6-4.62-3.63-6.26-6.12-1.64-2.48-2.46-5.67-2.46-9.57,0-3.28.69-6.2,2.06-8.78,1.38-2.57,3.24-4.7,5.59-6.38s5.1-2.97,8.26-3.86c3.15-.89,6.5-1.33,10.05-1.33ZM81.34,495c4.53,0,8.37.58,11.52,1.73s5.61,2.22,7.39,3.19c1.51.8,2.4,1.86,2.66,3.19.27,1.33.04,2.75-.67,4.25l-1.33,2.39c-.8,1.6-1.82,2.53-3.06,2.79s-2.71.04-4.39-.66c-1.51-.71-3.33-1.44-5.46-2.19-2.13-.75-4.62-1.13-7.46-1.13s-5.19.58-6.79,1.73c-1.6,1.15-2.4,2.79-2.4,4.92,0,1.86.82,3.37,2.46,4.52,1.64,1.15,3.73,2.17,6.26,3.06,2.53.89,5.24,1.84,8.12,2.86,2.88,1.02,5.59,2.33,8.12,3.92,2.53,1.6,4.62,3.63,6.26,6.12,1.64,2.48,2.46,5.63,2.46,9.44,0,3.01-.6,5.78-1.8,8.31s-2.93,4.72-5.19,6.58c-2.26,1.86-4.99,3.32-8.19,4.39-3.2,1.06-6.75,1.6-10.65,1.6-5.5,0-10.14-.8-13.91-2.39-3.77-1.6-6.68-3.1-8.72-4.52-1.51-.89-2.35-1.99-2.53-3.32-.18-1.33.22-2.75,1.2-4.25l1.6-2.39c.98-1.42,2.06-2.22,3.26-2.39,1.2-.18,2.64.18,4.33,1.06,1.6.89,3.66,1.88,6.19,2.99,2.53,1.11,5.53,1.66,8.99,1.66,2.93,0,5.24-.62,6.92-1.86,1.69-1.24,2.53-2.93,2.53-5.05,0-1.86-.82-3.35-2.46-4.45-1.64-1.11-3.73-2.13-6.26-3.06-2.53-.93-5.24-1.93-8.12-2.99-2.88-1.06-5.59-2.39-8.12-3.99-2.53-1.6-4.62-3.63-6.26-6.12s-2.46-5.67-2.46-9.57c0-3.28.69-6.2,2.06-8.78,1.38-2.57,3.24-4.7,5.59-6.38s5.1-2.97,8.26-3.86c3.15-.89,6.5-1.33,10.05-1.33ZM324.12,470c3.73,0,5.59,1.86,5.59,5.58v27.39c0,.89-.02,1.66-.07,2.33-.04.66-.11,1.26-.2,1.8-.09.62-.13,1.15-.13,1.6h.27c.8-1.6,1.93-3.21,3.4-4.85,1.46-1.64,3.2-3.12,5.19-4.45,2-1.33,4.26-2.39,6.79-3.19,2.53-.8,5.26-1.2,8.19-1.2,7.55,0,13.38,2.04,17.51,6.12,4.13,4.08,6.19,10.64,6.19,19.68v38.03c0,3.72-1.86,5.58-5.59,5.58h-5.73c-3.73,0-5.59-1.86-5.59-5.58v-34.57c0-4.17-.71-7.51-2.13-10.04s-4.26-3.79-8.52-3.79c-2.93,0-5.61.58-8.06,1.73-2.44,1.15-4.5,2.73-6.19,4.72-1.69,1.99-3,4.37-3.93,7.11-.93,2.75-1.4,5.72-1.4,8.91v25.93c0,3.72-1.86,5.58-5.59,5.58h-5.73c-3.73,0-5.59-1.86-5.59-5.58v-83.24c0-3.72,1.86-5.58,5.59-5.58h5.73ZM235.65,496.59c3.64,0,5.46,1.86,5.46,5.58v56.64c0,3.72-1.82,5.58-5.46,5.58h-5.86c-3.64,0-5.46-1.86-5.46-5.58v-56.64c0-3.72,1.82-5.58,5.46-5.58h5.86ZM122.68,496.59c3.37,0,5.37,1.64,5.99,4.92l10.92,39.62c.18.98.33,1.86.47,2.66.13.8.29,1.55.47,2.26.18.8.31,1.55.4,2.26h.27c.09-.71.22-1.46.4-2.26.18-.71.33-1.46.47-2.26.13-.8.33-1.68.6-2.66l11.45-39.62c.62-3.19,2.66-4.79,6.12-4.79h5.06c3.28,0,5.33,1.6,6.12,4.79l11.32,39.62c.27.98.47,1.86.6,2.66.13.8.29,1.55.47,2.26.18.8.31,1.55.4,2.26h.27c.09-.71.22-1.46.4-2.26.18-.71.33-1.46.47-2.26.13-.8.33-1.68.6-2.66l10.79-39.62c.8-3.28,2.84-4.92,6.12-4.92h6.12c2.04,0,3.46.58,4.26,1.73.8,1.15.93,2.66.4,4.52l-17.44,56.91c-.89,3.1-2.97,4.65-6.26,4.65h-8.92c-3.37,0-5.46-1.6-6.26-4.79l-10.25-33.91c-.27-.89-.49-1.77-.67-2.66s-.36-1.68-.53-2.39c-.18-.8-.31-1.55-.4-2.26h-.27c-.18.71-.36,1.46-.53,2.26-.18.71-.36,1.51-.53,2.39-.18.89-.4,1.77-.67,2.66l-10.25,33.91c-.8,3.19-2.84,4.79-6.12,4.79h-9.19c-3.2,0-5.24-1.55-6.12-4.65l-17.58-56.91c-.53-1.86-.38-3.37.47-4.52.84-1.15,2.24-1.73,4.19-1.73h6.39Z"/>
      </g>
      <g id="Symbol_Colour" data-name="Symbol/Colour">
        <g id="Right-Swirl">
          <path id="Base-Shape" class="cls-4" d="M119.33,399.16c84.29,40.31,188.31,20.36,251.16-54.52,74.49-88.75,62.92-221.06-25.84-295.53l-59.01,70.31c69.34,58.17,78.38,161.54,20.19,230.88-46.4,55.29-122.8,73.75-186.5,48.86"/>
          <path id="Light-Cast" class="cls-1" d="M119.33,399.16c84.29,40.31,188.31,20.36,251.16-54.52,7.7-9.17,14.47-18.81,20.34-28.8,9.92-61.67-11.9-126.86-63.24-169.93-13.04-10.94-27.16-19.76-41.94-26.49,69.33,58.18,78.37,161.54,20.18,230.87-46.4,55.29-122.8,73.75-186.5,48.86"/>
        </g>
        <g id="Left-Swirl">
          <path id="Base-shape" class="cls-2" d="M300.25,20.43C215.97-19.88,111.94.07,49.1,74.95c-74.49,88.75-62.92,221.06,25.84,295.53l59.01-70.31c-69.34-58.17-78.38-161.54-20.19-230.88C160.16,14,236.56-4.46,300.25,20.43"/>
          <path id="Shadow" class="cls-3" d="M300.25,20.43C215.97-19.88,111.94.07,49.1,74.95c-7.7,9.17-14.47,18.81-20.34,28.8-9.92,61.67,11.9,126.86,63.24,169.93,13.04,10.94,27.16,19.76,41.94,26.49-69.33-58.17-78.37-161.54-20.18-230.87C160.16,14,236.56-4.46,300.25,20.43"/>
        </g>
      </g>
    </g>
  </g>
</svg>