<?xml version="1.0" encoding="UTF-8"?>
<svg id="Layer_2" data-name="Layer 2" xmlns="http://www.w3.org/2000/svg" viewBox="0 0 318 163.02">
  <g id="Logga_S_flatten_heavy" data-name="Logga S flatten heavy">
    <g>
      <g>
        <path d="M234.1,74.36c-5.06,2.64-10.34,4.55-15.84,5.72s-11.11,1.76-16.83,1.76c-6.09,0-11.7-.95-16.83-2.86-5.13-1.91-9.57-4.64-13.31-8.2-3.74-3.56-6.66-7.87-8.75-12.93-2.09-5.06-3.14-10.71-3.14-16.94s1.04-11.88,3.14-16.94c2.09-5.06,5-9.37,8.75-12.93,3.74-3.56,8.18-6.29,13.31-8.19,5.13-1.91,10.74-2.86,16.83-2.86s11.97.75,17.22,2.25c5.24,1.5,9.84,4.09,13.8,7.75l-12.1,13.2c-2.35-2.42-4.99-4.25-7.92-5.5-2.93-1.25-6.6-1.87-11-1.87-3.67,0-6.98.62-9.96,1.87-2.97,1.25-5.52,2.99-7.65,5.23-2.13,2.24-3.76,4.9-4.9,7.97-1.14,3.08-1.7,6.42-1.7,10.01s.57,7.02,1.7,10.06c1.14,3.04,2.77,5.68,4.9,7.92,2.13,2.24,4.68,3.98,7.65,5.23,2.97,1.25,6.29,1.87,9.96,1.87s6.97-.42,9.68-1.27c2.71-.84,4.88-1.71,6.49-2.58v-12.65h-13.97v-15.84h30.47v40.7Z"/>
        <path d="M143.04,79.86h-17.16v-31.13h-8.47l-16.28,31.13h-20.57l19.8-32.89c-5.5-1.03-9.68-3.46-12.54-7.32-2.86-3.85-4.29-8.52-4.29-14.02,0-4.55.79-8.34,2.36-11.39,1.58-3.04,3.7-5.46,6.38-7.26,2.68-1.8,5.79-3.08,9.35-3.85,3.56-.77,7.31-1.15,11.27-1.15h30.14v77.88ZM125.88,16.5h-11.22c-1.54,0-3.12.11-4.73.33-1.61.22-3.04.64-4.29,1.26-1.25.62-2.27,1.52-3.08,2.7-.81,1.17-1.21,2.75-1.21,4.73,0,2.13.46,3.78,1.38,4.95.92,1.17,2.07,2.04,3.46,2.58,1.39.55,2.95.88,4.68.99,1.72.11,3.35.17,4.9.17h10.12v-17.71Z"/>
      </g>
      <g>
        <path d="M89.55,128.46v24.43c0,1.44-.1,2.78-.29,4.01-.19,1.23-.57,2.3-1.13,3.22-.56.91-1.35,1.62-2.38,2.13-1.02.51-2.35.77-3.98.77-.54,0-1.07-.03-1.58-.1s-1.02-.18-1.54-.34l.43-4.99c.32.06.62.12.91.17.29.05.59.07.91.07.7,0,1.26-.15,1.66-.46.4-.3.69-.7.86-1.18.18-.48.28-1.01.31-1.58.03-.58.05-1.14.05-1.68v-24.48h5.76ZM82.97,120.63c0-.93.34-1.74,1.03-2.42.69-.69,1.56-1.03,2.62-1.03s1.94.33,2.66.98c.72.66,1.08,1.48,1.08,2.47s-.36,1.82-1.08,2.47c-.72.66-1.61.98-2.66.98s-1.93-.34-2.62-1.03c-.69-.69-1.03-1.5-1.03-2.42Z"/>
        <path d="M100.78,141.99c.19,1.73.86,3.07,2.02,4.03,1.15.96,2.54,1.44,4.18,1.44,1.44,0,2.65-.3,3.62-.89.98-.59,1.83-1.34,2.57-2.23l4.13,3.12c-1.34,1.66-2.85,2.85-4.51,3.55-1.66.7-3.41,1.06-5.23,1.06-1.73,0-3.36-.29-4.9-.86-1.54-.58-2.86-1.39-3.98-2.45-1.12-1.06-2.01-2.33-2.66-3.82-.66-1.49-.98-3.14-.98-4.97s.33-3.48.98-4.97c.66-1.49,1.54-2.76,2.66-3.82,1.12-1.06,2.45-1.87,3.98-2.45,1.54-.58,3.17-.86,4.9-.86,1.6,0,3.06.28,4.39.84,1.33.56,2.46,1.37,3.41,2.42.94,1.06,1.68,2.36,2.21,3.91.53,1.55.79,3.34.79,5.35v1.58h-17.57ZM112.59,137.67c-.03-1.7-.56-3.03-1.58-4.01-1.02-.97-2.45-1.46-4.27-1.46-1.73,0-3.1.5-4.1,1.49-1.01.99-1.62,2.32-1.85,3.98h11.81Z"/>
        <path d="M120.61,128.46h6.24l4.99,16.13h.1l4.66-16.13h6.24l4.99,16.13h.1l4.8-16.13h5.81l-7.82,23.04h-5.71l-5.47-15.74h-.1l-4.85,15.74h-5.95l-8.02-23.04Z"/>
        <path d="M166.54,141.99c.19,1.73.86,3.07,2.02,4.03,1.15.96,2.54,1.44,4.18,1.44,1.44,0,2.65-.3,3.62-.89.98-.59,1.83-1.34,2.57-2.23l4.13,3.12c-1.34,1.66-2.85,2.85-4.51,3.55-1.66.7-3.41,1.06-5.23,1.06-1.73,0-3.36-.29-4.9-.86-1.54-.58-2.86-1.39-3.98-2.45-1.12-1.06-2.01-2.33-2.66-3.82-.66-1.49-.98-3.14-.98-4.97s.33-3.48.98-4.97c.66-1.49,1.54-2.76,2.66-3.82,1.12-1.06,2.45-1.87,3.98-2.45,1.54-.58,3.17-.86,4.9-.86,1.6,0,3.06.28,4.39.84,1.33.56,2.46,1.37,3.41,2.42.94,1.06,1.68,2.36,2.21,3.91.53,1.55.79,3.34.79,5.35v1.58h-17.57ZM178.35,137.67c-.03-1.7-.56-3.03-1.58-4.01-1.02-.97-2.45-1.46-4.27-1.46-1.73,0-3.1.5-4.1,1.49-1.01.99-1.62,2.32-1.85,3.98h11.81Z"/>
        <path d="M189.58,115.21h5.76v36.29h-5.76v-36.29Z"/>
        <path d="M201.96,128.46h5.76v3.65h.1c.64-1.34,1.55-2.38,2.74-3.12,1.18-.74,2.54-1.1,4.08-1.1.35,0,.7.03,1.03.1s.68.14,1.03.24v5.57c-.48-.13-.95-.23-1.42-.31-.46-.08-.92-.12-1.37-.12-1.34,0-2.42.25-3.24.74-.82.5-1.44,1.06-1.87,1.7s-.72,1.28-.86,1.92c-.14.64-.22,1.12-.22,1.44v12.34h-5.76v-23.04Z"/>
        <path d="M217.52,128.46h6.34l6.43,15.98h.1l5.76-15.98h6l-10.9,27.98c-.42,1.09-.87,2.04-1.37,2.86-.5.82-1.08,1.5-1.75,2.06-.67.56-1.46.98-2.38,1.25-.91.27-2.01.41-3.29.41-1.5,0-2.98-.19-4.42-.58l.72-5.18c.45.16.92.3,1.42.41.5.11,1,.17,1.51.17.7,0,1.3-.06,1.78-.19.48-.13.89-.33,1.22-.6.34-.27.62-.62.84-1.06.22-.43.46-.95.72-1.56l1.1-2.74-9.84-23.23Z"/>
      </g>
      <path d="M315.36,133.04c-2.14-1.58-4.94-1.65-7.12-.39l-34.23-34.24,31.95-31.7c1.02.66,2.23,1.05,3.54,1.05,3.58,0,6.5-2.91,6.5-6.5s-2.92-6.5-6.5-6.5-6.5,2.92-6.5,6.5c0,1.57.55,3,1.47,4.12l-31.88,31.62-6.23-6.24H50.21L13.52,54.38c.93-1.12,1.48-2.55,1.48-4.12,0-3.58-2.92-6.5-6.5-6.5s-6.5,2.92-6.5,6.5,2.91,6.5,6.5,6.5c1.3,0,2.52-.39,3.54-1.05l37.35,37.05h216.14l5.64,5.64-3.38,3.36H51.64l-41.88,41.89c-2.18-1.26-4.98-1.19-7.12.39-1.4,1.03-2.31,2.54-2.57,4.26-.26,1.72.17,3.43,1.2,4.83,1.03,1.39,2.55,2.31,4.26,2.56.33.05.66.08.98.08,1.38,0,2.72-.44,3.85-1.28,1.4-1.03,2.31-2.54,2.57-4.26.26-1.72-.17-3.43-1.2-4.83-.13-.17-.26-.34-.41-.49l41.14-41.15h216.15l3.98-3.94,34.09,34.09c-.15.15-.28.32-.41.49-1.03,1.4-1.46,3.11-1.2,4.83.26,1.72,1.17,3.23,2.57,4.26,1.16.86,2.51,1.27,3.85,1.27,1.99,0,3.96-.91,5.24-2.63.86-1.16,1.27-2.51,1.27-3.85,0-2-.92-3.97-2.64-5.24ZM309.5,56.76c2.48,0,4.5,2.02,4.5,4.5s-2.02,4.5-4.5,4.5-4.5-2.01-4.5-4.5,2.02-4.5,4.5-4.5ZM8.5,54.76c-2.48,0-4.5-2.01-4.5-4.5s2.02-4.5,4.5-4.5,4.5,2.02,4.5,4.5-2.02,4.5-4.5,4.5Z"/>
    </g>
  </g>
</svg>