<?xml version="1.0" encoding="UTF-8"?>
<svg id="Layer_2" data-name="Layer 2" xmlns="http://www.w3.org/2000/svg" viewBox="0 0 364 242">
  <defs>
    <style>
      .cls-1 {
        fill: #fff;
      }

      .cls-2 {
        fill: #c36443;
      }
    </style>
  </defs>
  <g id="Logg_S_flatten_364x242" data-name="Logg S flatten 364x242">
    <g>
      <rect class="cls-1" width="364" height="242"/>
      <g>
        <g>
          <g>
            <path class="cls-2" d="M251.51,77.79v38.39c-1.91,1.17-4.07,2.2-6.49,3.08-2.42.88-4.93,1.63-7.54,2.25-2.6.62-5.24,1.08-7.92,1.38-2.68.29-5.19.44-7.53.44-6.6,0-12.49-1.1-17.66-3.3-5.17-2.2-9.53-5.17-13.09-8.91-3.56-3.74-6.27-8.08-8.14-13.04-1.87-4.95-2.81-10.17-2.81-15.67,0-5.79,1.01-11.18,3.03-16.17,2.02-4.99,4.8-9.31,8.36-12.98,3.56-3.67,7.83-6.54,12.81-8.64,4.99-2.09,10.45-3.13,16.39-3.13,7.19,0,13.05.9,17.6,2.69,4.55,1.8,8.36,4.27,11.44,7.42l-7.48,8.03c-3.23-3.08-6.64-5.23-10.23-6.44-3.59-1.21-7.37-1.81-11.33-1.81-4.47,0-8.51.83-12.1,2.48-3.59,1.65-6.67,3.87-9.24,6.65-2.57,2.79-4.55,6.07-5.94,9.85-1.39,3.78-2.09,7.79-2.09,12.04s.77,8.49,2.31,12.27c1.54,3.78,3.67,7.06,6.38,9.84,2.71,2.79,5.9,4.97,9.57,6.54,3.67,1.58,7.66,2.37,11.99,2.37,3.74,0,7.28-.35,10.61-1.04,3.34-.7,6.18-1.71,8.53-3.03v-21.67h-17.27v-9.9h27.83Z"/>
            <path class="cls-2" d="M160.45,121.35h-10.56v-34.32h-11.77l-19.8,34.32h-13.2l22.11-35.53c-2.93-.29-5.59-1.08-7.98-2.37-2.38-1.28-4.4-2.86-6.05-4.73-1.65-1.87-2.92-3.96-3.8-6.27-.88-2.31-1.32-4.71-1.32-7.21s.37-4.93,1.1-7.53c.73-2.6,2.03-4.95,3.9-7.04,1.87-2.09,4.42-3.81,7.65-5.17,3.23-1.36,7.33-2.03,12.32-2.03h27.39v77.88ZM149.89,52.71h-13.86c-2.05,0-4.09.17-6.1.5-2.02.33-3.81.94-5.39,1.81-1.58.88-2.84,2.15-3.79,3.79-.95,1.65-1.43,3.79-1.43,6.44s.48,4.79,1.43,6.44c.95,1.65,2.22,2.92,3.79,3.79,1.58.88,3.37,1.49,5.39,1.81,2.02.33,4.05.5,6.1.5h13.86v-25.08Z"/>
          </g>
          <g>
            <path class="cls-2" d="M114.56,194.03c0,.58-.09,1.24-.26,1.99-.18.75-.5,1.46-.98,2.11-.48.66-1.16,1.22-2.04,1.68-.88.46-2.01.7-3.38.7-.45,0-.89-.03-1.32-.1-.43-.06-.86-.19-1.27-.38l.43-3.26c.61.19,1.22.29,1.82.29.7,0,1.27-.13,1.7-.38.43-.26.76-.6.98-1.03.22-.43.38-.94.46-1.51.08-.58.12-1.18.12-1.82v-25.78h3.74v27.5ZM109.95,157.74c0-.74.26-1.38.79-1.92.53-.54,1.18-.82,1.94-.82s1.42.27,1.94.82c.53.54.79,1.18.79,1.92,0,.8-.26,1.46-.77,1.97-.51.51-1.17.77-1.97.77s-1.46-.26-1.97-.77c-.51-.51-.77-1.17-.77-1.97Z"/>
            <path class="cls-2" d="M142.06,184.91c-1.34,1.73-2.82,2.94-4.42,3.62-1.6.69-3.46,1.03-5.57,1.03-1.76,0-3.34-.31-4.75-.94-1.41-.62-2.6-1.46-3.58-2.52-.98-1.06-1.73-2.3-2.26-3.74-.53-1.44-.79-2.98-.79-4.61,0-1.73.29-3.32.86-4.78.58-1.46,1.38-2.7,2.4-3.74,1.02-1.04,2.24-1.85,3.65-2.42,1.41-.58,2.94-.86,4.61-.86,1.57,0,3.01.26,4.32.79,1.31.53,2.44,1.3,3.38,2.3.94,1.01,1.67,2.24,2.18,3.7.51,1.46.77,3.11.77,4.97v1.2h-18.14c.06.96.3,1.88.7,2.76.4.88.92,1.65,1.56,2.3.64.66,1.39,1.18,2.26,1.56.86.38,1.81.58,2.83.58,1.63,0,3.01-.29,4.13-.86,1.12-.58,2.13-1.42,3.02-2.54l2.83,2.21ZM138.85,175.74c-.06-1.92-.69-3.46-1.87-4.61-1.18-1.15-2.82-1.73-4.9-1.73s-3.76.58-5.04,1.73c-1.28,1.15-2.05,2.69-2.3,4.61h14.11Z"/>
            <path class="cls-2" d="M172.78,188.99h-3.7l-6.38-17.28h-.1l-5.66,17.28h-3.84l-7.3-22.46h4.13l5.14,17.28h.1l5.81-17.28h3.94l5.9,17.28h.1l5.09-17.28h4.03l-7.25,22.46Z"/>
            <path class="cls-2" d="M204.32,184.91c-1.34,1.73-2.82,2.94-4.42,3.62-1.6.69-3.46,1.03-5.57,1.03-1.76,0-3.34-.31-4.75-.94-1.41-.62-2.6-1.46-3.58-2.52-.98-1.06-1.73-2.3-2.26-3.74-.53-1.44-.79-2.98-.79-4.61,0-1.73.29-3.32.86-4.78.58-1.46,1.38-2.7,2.4-3.74,1.02-1.04,2.24-1.85,3.65-2.42,1.41-.58,2.94-.86,4.61-.86,1.57,0,3.01.26,4.32.79,1.31.53,2.44,1.3,3.38,2.3.94,1.01,1.67,2.24,2.18,3.7.51,1.46.77,3.11.77,4.97v1.2h-18.14c.06.96.3,1.88.7,2.76.4.88.92,1.65,1.56,2.3.64.66,1.39,1.18,2.26,1.56.86.38,1.81.58,2.83.58,1.63,0,3.01-.29,4.13-.86,1.12-.58,2.13-1.42,3.02-2.54l2.83,2.21ZM201.1,175.74c-.06-1.92-.69-3.46-1.87-4.61-1.18-1.15-2.82-1.73-4.9-1.73s-3.76.58-5.04,1.73c-1.28,1.15-2.05,2.69-2.3,4.61h14.11Z"/>
            <path class="cls-2" d="M211.28,152.7h3.74v36.29h-3.74v-36.29Z"/>
            <path class="cls-2" d="M222.46,171.85c0-1.02-.03-1.98-.1-2.88-.06-.9-.1-1.71-.1-2.45h3.55c0,.61.02,1.22.05,1.82.03.61.05,1.23.05,1.87h.1c.26-.54.62-1.07,1.08-1.58.46-.51,1.02-.97,1.66-1.37.64-.4,1.36-.72,2.16-.96.8-.24,1.66-.36,2.59-.36.26,0,.51.02.77.05.26.03.51.1.77.19l-.24,3.79c-.64-.19-1.31-.29-2.02-.29-2.3,0-3.98.74-5.02,2.23-1.04,1.49-1.56,3.53-1.56,6.12v10.94h-3.74v-17.14Z"/>
            <path class="cls-2" d="M247.61,194.13c-.38.96-.78,1.83-1.18,2.62-.4.78-.88,1.46-1.44,2.02-.56.56-1.23.99-2.02,1.3-.78.3-1.74.46-2.86.46-.54,0-1.11-.03-1.7-.1-.59-.06-1.14-.22-1.66-.48l.48-3.26c.38.16.78.26,1.2.31.42.05.9.07,1.44.07,1.22,0,2.11-.34,2.69-1.01.58-.67,1.07-1.57,1.49-2.69l1.54-4.22-9.31-22.61h4.37l6.96,17.62h.1l6.67-17.62h4.08l-10.85,27.6Z"/>
          </g>
        </g>
        <path class="cls-2" d="M338.36,173.53c-1.4-1.03-3.11-1.46-4.83-1.2-.82.12-1.59.4-2.29.81l-34.23-34.23,31.95-31.7c1.02.66,2.23,1.05,3.54,1.05,3.58,0,6.5-2.92,6.5-6.5s-2.92-6.5-6.5-6.5-6.5,2.91-6.5,6.5c0,1.56.55,2.99,1.47,4.11l-31.88,31.62-6.23-6.23H73.21l-36.69-36.39c.93-1.12,1.48-2.55,1.48-4.11,0-3.59-2.92-6.5-6.5-6.5s-6.5,2.91-6.5,6.5,2.91,6.5,6.5,6.5c1.3,0,2.52-.39,3.54-1.05l37.35,37.05h216.14l5.64,5.64-3.38,3.36H74.64l-41.88,41.88c-1-.58-2.13-.88-3.26-.88-1.35,0-2.7.41-3.86,1.27-2.89,2.13-3.5,6.2-1.37,9.09,1.03,1.39,2.55,2.31,4.26,2.56.33.05.66.08.98.08,1.38,0,2.72-.44,3.85-1.28,1.4-1.03,2.31-2.54,2.57-4.26.26-1.72-.17-3.43-1.2-4.83-.13-.17-.26-.34-.41-.49l41.14-41.14h216.15l3.98-3.94,34.09,34.08c-.15.16-.28.32-.41.49-1.03,1.4-1.46,3.11-1.2,4.83.26,1.72,1.17,3.23,2.57,4.26,1.16.86,2.51,1.27,3.85,1.27,1.99,0,3.96-.91,5.24-2.63.86-1.16,1.27-2.51,1.27-3.85,0-2-.92-3.97-2.64-5.24ZM332.5,97.26c2.48,0,4.5,2.01,4.5,4.5s-2.02,4.5-4.5,4.5-4.5-2.02-4.5-4.5,2.02-4.5,4.5-4.5ZM31.5,95.26c-2.48,0-4.5-2.02-4.5-4.5s2.02-4.5,4.5-4.5,4.5,2.01,4.5,4.5-2.02,4.5-4.5,4.5Z"/>
      </g>
    </g>
  </g>
</svg>